<svg xmlns="http://www.w3.org/2000/svg" width="91.551" height="24" viewBox="0 0 91.551 24"><g transform="translate(-438.28 -833.059)"><path d="M15.713-111.75h1.745v17.739H15.713v-2.33a5.207,5.207,0,0,1-1.776,1.925,4.815,4.815,0,0,1-2.673.729A6.346,6.346,0,0,1,8.722-94.2a6.652,6.652,0,0,1-2.087-1.414A6.651,6.651,0,0,1,5.221-97.7a6.346,6.346,0,0,1-.511-2.542,6.391,6.391,0,0,1,.511-2.548,6.631,6.631,0,0,1,1.414-2.093A6.651,6.651,0,0,1,8.722-106.3a6.346,6.346,0,0,1,2.542-.511,4.815,4.815,0,0,1,2.673.729,5.235,5.235,0,0,1,1.776,1.913ZM11.277-95.382a3.971,3.971,0,0,0,2.293-.654A4.268,4.268,0,0,0,15.046-97.8a5.708,5.708,0,0,0,.517-2.442,5.7,5.7,0,0,0-.523-2.474,4.277,4.277,0,0,0-1.483-1.751,3.977,3.977,0,0,0-2.28-.648,4.565,4.565,0,0,0-2.4.654A4.928,4.928,0,0,0,7.14-102.7a4.777,4.777,0,0,0-.648,2.455,4.7,4.7,0,0,0,.66,2.461A4.978,4.978,0,0,0,8.9-96.029,4.563,4.563,0,0,0,11.277-95.382Zm9.333-11.09h1.745v12.461H20.61Zm.885-2.43a1,1,0,0,1-.717-.28.934.934,0,0,1-.293-.7.934.934,0,0,1,.293-.7,1,1,0,0,1,.717-.28.982.982,0,0,1,.7.28.934.934,0,0,1,.293.7.934.934,0,0,1-.293.7A.982.982,0,0,1,21.5-108.9Zm14.268,2.43h1.745V-93.55a5,5,0,0,1-.517,2.243,6.076,6.076,0,0,1-1.4,1.838,6.655,6.655,0,0,1-2,1.24,6.218,6.218,0,0,1-2.33.449,5.63,5.63,0,0,1-2.5-.592,6.893,6.893,0,0,1-2.1-1.576A5.807,5.807,0,0,1,25.4-92.129L27-92.864a4.075,4.075,0,0,0,.891,1.688,4.929,4.929,0,0,0,1.545,1.2,4.062,4.062,0,0,0,1.826.442,4.485,4.485,0,0,0,1.664-.318,5.087,5.087,0,0,0,1.445-.866A4.172,4.172,0,0,0,35.389-92a3.353,3.353,0,0,0,.374-1.551V-96.3a5.289,5.289,0,0,1-1.751,1.894,4.565,4.565,0,0,1-2.561.723A6,6,0,0,1,28.99-94.2a6.384,6.384,0,0,1-2.025-1.414A6.653,6.653,0,0,1,25.6-97.7a6.555,6.555,0,0,1-.492-2.542,6.6,6.6,0,0,1,.492-2.548,6.634,6.634,0,0,1,1.364-2.093A6.384,6.384,0,0,1,28.99-106.3a6,6,0,0,1,2.461-.511,4.594,4.594,0,0,1,2.561.717,5.208,5.208,0,0,1,1.751,1.9Zm-4.3,11.09a3.743,3.743,0,0,0,2.237-.673,4.414,4.414,0,0,0,1.452-1.782,5.678,5.678,0,0,0,.511-2.4,5.666,5.666,0,0,0-.517-2.436,4.4,4.4,0,0,0-1.464-1.769,3.755,3.755,0,0,0-2.218-.667,4.254,4.254,0,0,0-2.312.654A4.748,4.748,0,0,0,27.5-102.7a5,5,0,0,0-.611,2.455,4.891,4.891,0,0,0,.623,2.449,4.863,4.863,0,0,0,1.664,1.757A4.211,4.211,0,0,0,31.464-95.382Zm8.91-11.09h1.745v12.461H40.374Zm.885-2.43a1,1,0,0,1-.717-.28.934.934,0,0,1-.293-.7.934.934,0,0,1,.293-.7,1,1,0,0,1,.717-.28.982.982,0,0,1,.7.28.934.934,0,0,1,.293.7.934.934,0,0,1-.293.7A.982.982,0,0,1,41.258-108.9Zm10.729,4.174H49.009L49-94.011H47.252l.012-10.717H45.009v-1.745h2.255l-.012-3.913H49l.012,3.913h2.978Zm12.237-1.745h1.745v12.461H64.212l-.05-2.318a5.022,5.022,0,0,1-1.707,1.913,4.617,4.617,0,0,1-2.617.729,6.4,6.4,0,0,1-2.567-.517,6.721,6.721,0,0,1-2.106-1.427,6.634,6.634,0,0,1-1.421-2.106,6.467,6.467,0,0,1-.511-2.567,6.451,6.451,0,0,1,.5-2.53,6.457,6.457,0,0,1,1.4-2.081,6.581,6.581,0,0,1,2.069-1.4,6.293,6.293,0,0,1,2.517-.5,4.954,4.954,0,0,1,2.729.741,5.424,5.424,0,0,1,1.832,1.938Zm-4.349,11.09a3.91,3.91,0,0,0,2.3-.667,4.225,4.225,0,0,0,1.452-1.788,5.615,5.615,0,0,0,.461-2.467,5.707,5.707,0,0,0-.586-2.436,4.417,4.417,0,0,0-1.514-1.732,4.013,4.013,0,0,0-2.274-.642,4.555,4.555,0,0,0-2.424.667,4.8,4.8,0,0,0-1.713,1.782,4.736,4.736,0,0,0-.586,2.486,4.845,4.845,0,0,0,.729,2.424A5.1,5.1,0,0,0,57.5-96.023,4.63,4.63,0,0,0,59.875-95.382Zm9.333,1.371V-111.75h1.745v17.739Z" transform="translate(458.878 944.839)" fill="#999"/><path d="M6.28-94.171v-3.34q.7-.436,1.745-1.215t2.2-1.751q1.153-.972,2.156-1.975a14.749,14.749,0,0,0,1.639-1.907,2.851,2.851,0,0,0,.636-1.526,2.256,2.256,0,0,0-.312-1.165,2.365,2.365,0,0,0-.829-.841,2.191,2.191,0,0,0-1.153-.312,2.223,2.223,0,0,0-1.159.312,2.4,2.4,0,0,0-.841.841,2.222,2.222,0,0,0-.318,1.165H6.3a5.822,5.822,0,0,1,.835-3.09,6.18,6.18,0,0,1,2.212-2.168,5.9,5.9,0,0,1,3.009-.8,5.842,5.842,0,0,1,3.028.81,6.13,6.13,0,0,1,2.187,2.187,5.887,5.887,0,0,1,.816,3.059,5.543,5.543,0,0,1-.224,1.589,6.65,6.65,0,0,1-.654,1.483,11.245,11.245,0,0,1-1.065,1.489q-.636.76-1.464,1.6T13.159-97.91h6.5v3.738Zm20.237-12.81a6.388,6.388,0,0,1,3.315.885,6.684,6.684,0,0,1,2.38,2.374,6.332,6.332,0,0,1,.885,3.3,6.435,6.435,0,0,1-.511,2.555,6.612,6.612,0,0,1-1.414,2.1,6.632,6.632,0,0,1-2.093,1.414,6.422,6.422,0,0,1-2.561.511,3.666,3.666,0,0,1-1.769-.424,5.091,5.091,0,0,1-1.371-1.072v1.171H19.638v-17.739h3.738v6.425a4.877,4.877,0,0,1,1.371-1.078A3.71,3.71,0,0,1,26.517-106.981Zm-.05,9.52a2.6,2.6,0,0,0,1.408-.4,2.91,2.91,0,0,0,1.009-1.072,3.027,3.027,0,0,0,.374-1.5,3,3,0,0,0-.374-1.483,2.961,2.961,0,0,0-1.009-1.078,2.566,2.566,0,0,0-1.408-.4,2.515,2.515,0,0,0-1.389.4,2.98,2.98,0,0,0-1,1.078,3,3,0,0,0-.374,1.483,3.027,3.027,0,0,0,.374,1.5,2.928,2.928,0,0,0,1,1.072A2.543,2.543,0,0,0,26.467-97.461Z" transform="translate(432 945)" fill="#999"/></g></svg>