<svg xmlns="http://www.w3.org/2000/svg" width="13.5" height="11.61" viewBox="0 0 13.5 11.61">
  <g id="Grupo_796" data-name="Grupo 796" transform="translate(0)">
    <g id="Grupo_793" data-name="Grupo 793" transform="translate(0)">
      <path id="Caminho_411" data-name="Caminho 411" d="M494.844,3478.679a.36.36,0,0,0,.256-.106l5.443-5.443a.362.362,0,0,0-.512-.512l-5.443,5.443a.362.362,0,0,0,.256.618Z" transform="translate(-494.482 -3472.512)" fill="#002a4e"/>
    </g>
    <g id="Grupo_794" data-name="Grupo 794" transform="translate(0 5.443)">
      <path id="Caminho_412" data-name="Caminho 412" d="M500.287,3553.83a.363.363,0,0,0,.256-.619l-5.443-5.443a.362.362,0,1,0-.512.512l5.443,5.443A.361.361,0,0,0,500.287,3553.83Z" transform="translate(-494.482 -3547.662)" fill="#002a4e"/>
    </g>
    <g id="Grupo_795" data-name="Grupo 795" transform="translate(0.52 5.443)">
      <path id="Caminho_413" data-name="Caminho 413" d="M352.114,3548.386h12.392a.37.37,0,0,0,0-.724H352.114a.37.37,0,0,0,0,.724Z" transform="translate(-351.82 -3547.662)" fill="#002a4e"/>
    </g>
  </g>
</svg>
