<svg xmlns="http://www.w3.org/2000/svg" width="34.466" height="33.113" viewBox="0 0 34.466 33.113">
  <g id="Group_4332" data-name="Group 4332" transform="translate(-979.106 -2333)">
    <path id="Path_435" data-name="Path 435" d="M38.925,21.534l-.823-.391a1.7,1.7,0,0,1-.76-2.343l.435-.8a3.351,3.351,0,0,0-3.555-4.9l-.9.166a1.7,1.7,0,0,1-1.989-1.447l-.12-.9a3.349,3.349,0,0,0-5.753-1.871l-.627.661h0a1.737,1.737,0,0,1-2.463,0l-.625-.661a3.35,3.35,0,0,0-5.755,1.869l-.12.906a1.7,1.7,0,0,1-1.991,1.445l-.9-.166A3.351,3.351,0,0,0,9.426,18l.435.8a1.694,1.694,0,0,1-.76,2.341l-.823.391a3.351,3.351,0,0,0,0,6.051l.823.392a1.7,1.7,0,0,1,.76,2.343l-.435.8a3.351,3.351,0,0,0,3.555,4.9l.9-.166a1.7,1.7,0,0,1,1.989,1.447l.12.9a3.327,3.327,0,0,0,2.288,2.754,3.415,3.415,0,0,0,1.048.166,3.312,3.312,0,0,0,2.417-1.049l.629-.661a1.738,1.738,0,0,1,2.463,0l.625.661A3.35,3.35,0,0,0,31.214,38.2l.12-.905a1.7,1.7,0,0,1,1.991-1.445l.9.166a3.351,3.351,0,0,0,3.557-4.894l-.435-.8a1.694,1.694,0,0,1,.76-2.341l.823-.392a3.351,3.351,0,0,0,0-6.051Zm-.712,4.557-.823.391a3.35,3.35,0,0,0-1.5,4.626l.435.8a1.663,1.663,0,0,1-.116,1.806,1.683,1.683,0,0,1-1.683.671l-.9-.167a3.349,3.349,0,0,0-3.935,2.857l-.12.906a1.695,1.695,0,0,1-2.911.946l-.625-.661a3.426,3.426,0,0,0-4.865,0l-.629.661a1.693,1.693,0,0,1-2.909-.948l-.12-.9A3.351,3.351,0,0,0,14.2,34.162a3.371,3.371,0,0,0-.623.058l-.9.167A1.684,1.684,0,0,1,11,33.716a1.666,1.666,0,0,1-.116-1.808l.435-.8a3.351,3.351,0,0,0-1.5-4.628l-.823-.391a1.7,1.7,0,0,1,0-3.062l.823-.392a3.349,3.349,0,0,0,1.5-4.626l-.435-.8a1.695,1.695,0,0,1,1.8-2.477l.9.166a3.349,3.349,0,0,0,3.935-2.857l.12-.905a1.695,1.695,0,0,1,2.911-.946l.625.661a3.425,3.425,0,0,0,4.865,0l.629-.661a1.693,1.693,0,0,1,2.909.948l.12.9A3.348,3.348,0,0,0,33.624,14.9l.9-.166a1.7,1.7,0,0,1,1.8,2.479l-.435.8a3.35,3.35,0,0,0,1.5,4.627l.823.392a1.7,1.7,0,0,1,0,3.062Z" transform="translate(972.738 2324.996)" fill="#957c78"/>
    <path id="Path_436" data-name="Path 436" d="M41.822,32.668l-4.115-.6-1.84-3.728a.753.753,0,0,0-1.294,0l-1.84,3.728-4.115.6a.722.722,0,0,0-.4,1.232L31.2,36.8l-.7,4.1a.722.722,0,0,0,1.048.761l3.68-1.935,3.68,1.935a.709.709,0,0,0,.336.083.723.723,0,0,0,.712-.845l-.7-4.1,2.977-2.9a.722.722,0,0,0-.4-1.232Zm-3.857,3.364a.726.726,0,0,0-.209.64l.521,3.029-2.721-1.43a.717.717,0,0,0-.671,0L32.163,39.7l.521-3.029a.726.726,0,0,0-.209-.64l-2.2-2.145,3.043-.441a.725.725,0,0,0,.543-.395l1.361-2.757,1.361,2.757a.725.725,0,0,0,.543.395l3.043.441Z" transform="translate(961.12 2314.302)" fill="#957c78"/>
  </g>
</svg>
