<svg xmlns="http://www.w3.org/2000/svg" width="34.086" height="34.067" viewBox="0 0 34.086 34.067">
  <path id="Path_6784" data-name="Path 6784" d="M395.052,403.625c1.472-1.026,2.926-2.077,4.42-3.068s3.032-1.923,4.581-2.9l.57.975a89.423,89.423,0,0,0-9.844,6.619,4.164,4.164,0,0,1,.642.141,6.2,6.2,0,0,1,1.23.564,2.413,2.413,0,0,0,1.056.4,12.261,12.261,0,0,1,6.346,2.952c.434.378.447.641.048,1.057a12.408,12.408,0,0,1-9.6,3.978c-.374-.007-.747-.056-1.061-.081l-1.051,1.947c.038.015.144.066.254.1a12.448,12.448,0,0,1,3.725,2.034c.4.315.435.594.1.979a12.376,12.376,0,0,1-10.788,4.465c-.509-.038-1.013-.131-1.554-.2a3.874,3.874,0,0,1-1.4,3.211,3.652,3.652,0,0,1-2.318.874c-1.97.042-3.382-1.145-3.941-3.355-1.615,2.25-3.071,4.543-4.453,6.905l-.982-.574,3.936-6.176c-.531-.76-1.124-1.5-1.6-2.307a12.508,12.508,0,0,1,1.883-15.057c.357-.362.62-.361.985.01a12.671,12.671,0,0,1,2.1,2.877.824.824,0,0,0,.409-.8,12.412,12.412,0,0,1,3.48-10.214c.357-.378.626-.37.983,0a12.283,12.283,0,0,1,2.755,4.35.4.4,0,0,0,.438.31,9.467,9.467,0,0,1,1.04.121,3.826,3.826,0,0,1,1.221-3.533,3.724,3.724,0,0,1,2.722-.98C393.6,399.309,394.988,400.97,395.052,403.625Zm.3,15.331c-.08-.064-.13-.108-.185-.147a11.022,11.022,0,0,0-3.756-1.722,1.375,1.375,0,0,0-.655.021,3.847,3.847,0,0,1-1.718.13c-.241-.044-.481-.1-.73-.148a3.932,3.932,0,0,1-4.587,5.074.821.821,0,0,0,.363.247,11.017,11.017,0,0,0,4.5.206A11.442,11.442,0,0,0,395.355,418.956Zm-17.9,2.156a3.874,3.874,0,0,1-4.278-3.884,3.742,3.742,0,0,1,1.113-2.636,3.846,3.846,0,0,1,3.445-1.075,3.962,3.962,0,0,1-.038-2.184.379.379,0,0,0-.04-.228,11.049,11.049,0,0,0-1.9-2.9,11.336,11.336,0,0,0-.05,15.281Zm5.223-12.342a3.925,3.925,0,0,1,2.324-4.95,11.338,11.338,0,0,0-2.29-3.774,11.608,11.608,0,0,0-2.911,8.844A3.867,3.867,0,0,1,382.683,408.769Zm8.552-2.96a2.732,2.732,0,1,0-2.736-2.7A2.734,2.734,0,0,0,391.235,405.809Zm3.285.549a2.732,2.732,0,1,0,2.723,2.752A2.735,2.735,0,0,0,394.52,406.358Zm-7.662,7.108a2.733,2.733,0,1,0,2.736-2.736A2.737,2.737,0,0,0,386.858,413.466Zm-12.573,3.791a2.733,2.733,0,1,0,2.737-2.7A2.735,2.735,0,0,0,374.285,417.257Zm3.28,6.591a2.733,2.733,0,1,0,2.739-2.734A2.737,2.737,0,0,0,377.565,423.848Zm3.83-14.211a2.733,2.733,0,0,0-2.737,2.73,2.762,2.762,0,0,0,2.735,2.74,2.9,2.9,0,0,0,2.737-2.728A2.762,2.762,0,0,0,381.395,409.637Zm3.269,11.476a2.728,2.728,0,1,0-2.725-2.743A2.736,2.736,0,0,0,384.664,421.114Zm1.655-16.4a2.729,2.729,0,1,0,2.725,2.746A2.736,2.736,0,0,0,386.319,404.717Zm7.06,8.048c.019.386.019.389.274.416A11.361,11.361,0,0,0,401,411.52a10.045,10.045,0,0,0,2.047-1.643,11.3,11.3,0,0,0-5.038-2.364A3.855,3.855,0,0,1,393.379,412.765Zm-7.631.734-1.146,1.018,1.34.22Zm3.783-3.9,1.123.169V408.6Zm-4.514,1.474.224,1.111.878-.892Zm6-4.162-.934-.165.077.806ZM380.846,416.96l.638-.745-.8-.074Zm.172,2.581-.5.473.732.115Z" transform="translate(-370.788 -397.406)" fill="#957c78" stroke="#957c78" stroke-linecap="round" stroke-linejoin="round" stroke-width="0.5"/>
</svg>
