<svg xmlns="http://www.w3.org/2000/svg" xmlns:xlink="http://www.w3.org/1999/xlink" viewBox="0 0 16 16"> <g id="titles"><g id="Grupo_4420" data-name="Grupo 4420"><path fill="#fff" id="Caminho_6766" data-name="Caminho 6766"  d="M.05,6.93A5.89,5.89,0,0,1,1.23,4,6.54,6.54,0,0,1,5.32,1.29,2.91,2.91,0,0,1,8.83,4.77,6.73,6.73,0,0,1,3.69,10a3.08,3.08,0,0,1-2.45-.45A3,3,0,0,1,.05,6.93ZM7.13,2.59a2.14,2.14,0,0,0-1.81-.26A5.66,5.66,0,0,0,1.16,6.5a2.12,2.12,0,0,0,.05,1.34c.46-.26.92-.49,1.35-.77A3.64,3.64,0,0,0,3.92,5.6,5.34,5.34,0,0,1,6.55,3c.19-.1.36-.22.58-.36ZM1.8,8.68a2.27,2.27,0,0,0,1.83.26A5.64,5.64,0,0,0,7.77,4.79a2.18,2.18,0,0,0,0-1.36c-.35.2-.66.4-1,.57A4.26,4.26,0,0,0,4.91,5.89a5.14,5.14,0,0,1-2.43,2.4c-.22.1-.42.24-.68.39Z"/><path fill="#fff" id="Caminho_6767" data-name="Caminho 6767"  d="M7.05,11.34a5.89,5.89,0,0,1,1.18-3,6.53,6.53,0,0,1,4.1-2.66,2.9,2.9,0,0,1,3.5,3.48,6.73,6.73,0,0,1-5.14,5.2,3.08,3.08,0,0,1-2.45-.45A3,3,0,0,1,7.05,11.34ZM14.13,7a2.14,2.14,0,0,0-1.81-.26,5.66,5.66,0,0,0-4.16,4.17,2.12,2.12,0,0,0,.05,1.34c.46-.26.92-.49,1.35-.77A3.64,3.64,0,0,0,10.92,10a5.34,5.34,0,0,1,2.63-2.65c.19-.1.36-.23.58-.36ZM8.8,13.09a2.27,2.27,0,0,0,1.83.26A5.64,5.64,0,0,0,14.77,9.2a2.18,2.18,0,0,0,0-1.36l-1,.57a4.26,4.26,0,0,0-1.84,1.89,5.14,5.14,0,0,1-2.43,2.4c-.22.1-.42.24-.68.39Z"/></g><g id="Grupo_4420-2" data-name="Grupo 4420"><path fill="#fff" id="Caminho_6766-2" data-name="Caminho 6766" d="M.05,6.93A5.89,5.89,0,0,1,1.23,4,6.54,6.54,0,0,1,5.32,1.29,2.91,2.91,0,0,1,8.83,4.77,6.73,6.73,0,0,1,3.69,10a3.08,3.08,0,0,1-2.45-.45A3,3,0,0,1,.05,6.93ZM7.13,2.59a2.14,2.14,0,0,0-1.81-.26A5.66,5.66,0,0,0,1.16,6.5a2.12,2.12,0,0,0,.05,1.34c.46-.26.92-.49,1.35-.77A3.64,3.64,0,0,0,3.92,5.6,5.34,5.34,0,0,1,6.55,3c.19-.1.36-.22.58-.36ZM1.8,8.68a2.27,2.27,0,0,0,1.83.26A5.64,5.64,0,0,0,7.77,4.79a2.18,2.18,0,0,0,0-1.36c-.35.2-.66.4-1,.57A4.26,4.26,0,0,0,4.91,5.89a5.14,5.14,0,0,1-2.43,2.4c-.22.1-.42.24-.68.39Z"/><path fill="#fff" id="Caminho_6767-2" data-name="Caminho 6767" d="M7.05,11.34a5.89,5.89,0,0,1,1.18-3,6.53,6.53,0,0,1,4.1-2.66,2.9,2.9,0,0,1,3.5,3.48,6.73,6.73,0,0,1-5.14,5.2,3.08,3.08,0,0,1-2.45-.45A3,3,0,0,1,7.05,11.34ZM14.13,7a2.14,2.14,0,0,0-1.81-.26,5.66,5.66,0,0,0-4.16,4.17,2.12,2.12,0,0,0,.05,1.34c.46-.26.92-.49,1.35-.77A3.64,3.64,0,0,0,10.92,10a5.34,5.34,0,0,1,2.63-2.65c.19-.1.36-.23.58-.36ZM8.8,13.09a2.27,2.27,0,0,0,1.83.26A5.64,5.64,0,0,0,14.77,9.2a2.18,2.18,0,0,0,0-1.36l-1,.57a4.26,4.26,0,0,0-1.84,1.89,5.14,5.14,0,0,1-2.43,2.4c-.22.1-.42.24-.68.39Z"/></g></g></svg>