<svg xmlns="http://www.w3.org/2000/svg" xmlns:xlink="http://www.w3.org/1999/xlink" viewBox="0 0 16 16"><g id="titles"><g id="Grupo_4313" data-name="Grupo 4313"><path fill="#fff" id="Caminho_6773" data-name="Caminho 6773" class="cls-4" d="M4.23,4A4.05,4.05,0,0,1,5.05,1.9,4.47,4.47,0,0,1,7.88.06,2,2,0,0,1,10.3,1.54a2,2,0,0,1,0,.92,4.65,4.65,0,0,1-3.55,3.6,2.15,2.15,0,0,1-1.69-.31A2.09,2.09,0,0,1,4.23,4Zm4.9-3A1.46,1.46,0,0,0,7.88.78,3.89,3.89,0,0,0,5,3.66a1.45,1.45,0,0,0,0,.92c.32-.17.64-.34.94-.53A2.35,2.35,0,0,0,6.9,3,3.85,3.85,0,0,1,8.72,1.2,3.61,3.61,0,0,0,9.13,1ZM5.44,5.17a1.62,1.62,0,0,0,1.27.18A3.92,3.92,0,0,0,9.57,2.48a1.51,1.51,0,0,0,0-.94c-.24.14-.45.27-.68.39A3,3,0,0,0,7.59,3.24,3.54,3.54,0,0,1,5.91,4.89Z"/><path fill="#fff" id="Caminho_6774" data-name="Caminho 6774" class="cls-4" d="M1.18,10.79A4,4,0,0,1,2,8.73,4.56,4.56,0,0,1,4.82,6.89,2,2,0,0,1,7.24,8.38a1.91,1.91,0,0,1,0,.92,4.63,4.63,0,0,1-3.56,3.59A2.11,2.11,0,0,1,2,12.58,2,2,0,0,1,1.18,10.79Zm4.89-3a1.49,1.49,0,0,0-1.25-.18,3.94,3.94,0,0,0-2.88,2.88,1.48,1.48,0,0,0,0,.93c.32-.18.64-.34.93-.53a2.43,2.43,0,0,0,.94-1A3.77,3.77,0,0,1,5.67,8a3.17,3.17,0,0,0,.4-.25ZM2.39,12a1.55,1.55,0,0,0,1.26.18A3.9,3.9,0,0,0,6.52,9.32a1.51,1.51,0,0,0,0-.94c-.24.13-.46.27-.68.38a2.93,2.93,0,0,0-1.27,1.31,3.61,3.61,0,0,1-1.68,1.66C2.71,11.8,2.57,11.9,2.39,12Z"/><path fill="#fff" id="Caminho_6775" data-name="Caminho 6775" class="cls-4" d="M9.07,7a4.12,4.12,0,0,1,.82-2.06A4.55,4.55,0,0,1,12.72,3.1a2,2,0,0,1,2.42,1.49,2,2,0,0,1,0,.92,4.66,4.66,0,0,1-3.55,3.6,2.21,2.21,0,0,1-1.7-.31A2.12,2.12,0,0,1,9.07,7ZM14,4a1.5,1.5,0,0,0-1.25-.19A3.91,3.91,0,0,0,9.84,6.7a1.48,1.48,0,0,0,0,.93c.32-.18.64-.34.94-.53a2.41,2.41,0,0,0,.93-1,3.81,3.81,0,0,1,1.82-1.83c.13-.06.26-.15.41-.24ZM10.28,8.22a1.57,1.57,0,0,0,1.27.17,3.9,3.9,0,0,0,2.86-2.86,1.51,1.51,0,0,0,0-.94L13.7,5a3,3,0,0,0-1.27,1.3,3.52,3.52,0,0,1-1.68,1.66A5.23,5.23,0,0,0,10.28,8.22Z"/><path fill="#fff" id="Caminho_6776" data-name="Caminho 6776" class="cls-4" d="M6,13.84a4,4,0,0,1,.81-2.06A4.61,4.61,0,0,1,9.66,9.94a2,2,0,0,1,2.42,1.49,1.91,1.91,0,0,1,0,.92,4.66,4.66,0,0,1-3.56,3.59,2.11,2.11,0,0,1-1.69-.31A2,2,0,0,1,6,13.84Zm4.89-3a1.49,1.49,0,0,0-1.25-.18,3.94,3.94,0,0,0-2.88,2.88,1.48,1.48,0,0,0,0,.93c.32-.18.63-.34.93-.53a2.49,2.49,0,0,0,.94-1,3.69,3.69,0,0,1,1.82-1.83c.13-.07.25-.16.4-.25ZM7.23,15.05a1.55,1.55,0,0,0,1.26.18,3.91,3.91,0,0,0,2.87-2.87,1.51,1.51,0,0,0,0-.94l-.68.39a2.93,2.93,0,0,0-1.27,1.31,3.58,3.58,0,0,1-1.69,1.66C7.54,14.85,7.4,15,7.23,15.05Z"/></g><g id="Grupo_4313-2" data-name="Grupo 4313"><path fill="#fff" id="Caminho_6773-2" data-name="Caminho 6773" d="M4.23,4A4.05,4.05,0,0,1,5.05,1.9,4.47,4.47,0,0,1,7.88.06,2,2,0,0,1,10.3,1.54a2,2,0,0,1,0,.92,4.65,4.65,0,0,1-3.55,3.6,2.15,2.15,0,0,1-1.69-.31A2.09,2.09,0,0,1,4.23,4Zm4.9-3A1.46,1.46,0,0,0,7.88.78,3.89,3.89,0,0,0,5,3.66a1.45,1.45,0,0,0,0,.92c.32-.17.64-.34.94-.53A2.35,2.35,0,0,0,6.9,3,3.85,3.85,0,0,1,8.72,1.2,3.61,3.61,0,0,0,9.13,1ZM5.44,5.17a1.62,1.62,0,0,0,1.27.18A3.92,3.92,0,0,0,9.57,2.48a1.51,1.51,0,0,0,0-.94c-.24.14-.45.27-.68.39A3,3,0,0,0,7.59,3.24,3.54,3.54,0,0,1,5.91,4.89Z"/><path fill="#fff" id="Caminho_6774-2" data-name="Caminho 6774" d="M1.18,10.79A4,4,0,0,1,2,8.73,4.56,4.56,0,0,1,4.82,6.89,2,2,0,0,1,7.24,8.38a1.91,1.91,0,0,1,0,.92,4.63,4.63,0,0,1-3.56,3.59A2.11,2.11,0,0,1,2,12.58,2,2,0,0,1,1.18,10.79Zm4.89-3a1.49,1.49,0,0,0-1.25-.18,3.94,3.94,0,0,0-2.88,2.88,1.48,1.48,0,0,0,0,.93c.32-.18.64-.34.93-.53a2.43,2.43,0,0,0,.94-1A3.77,3.77,0,0,1,5.67,8a3.17,3.17,0,0,0,.4-.25ZM2.39,12a1.55,1.55,0,0,0,1.26.18A3.9,3.9,0,0,0,6.52,9.32a1.51,1.51,0,0,0,0-.94c-.24.13-.46.27-.68.38a2.93,2.93,0,0,0-1.27,1.31,3.61,3.61,0,0,1-1.68,1.66C2.71,11.8,2.57,11.9,2.39,12Z"/><path fill="#fff" id="Caminho_6775-2" data-name="Caminho 6775" d="M9.07,7a4.12,4.12,0,0,1,.82-2.06A4.55,4.55,0,0,1,12.72,3.1a2,2,0,0,1,2.42,1.49,2,2,0,0,1,0,.92,4.66,4.66,0,0,1-3.55,3.6,2.21,2.21,0,0,1-1.7-.31A2.12,2.12,0,0,1,9.07,7ZM14,4a1.5,1.5,0,0,0-1.25-.19A3.91,3.91,0,0,0,9.84,6.7a1.48,1.48,0,0,0,0,.93c.32-.18.64-.34.94-.53a2.41,2.41,0,0,0,.93-1,3.81,3.81,0,0,1,1.82-1.83c.13-.06.26-.15.41-.24ZM10.28,8.22a1.57,1.57,0,0,0,1.27.17,3.9,3.9,0,0,0,2.86-2.86,1.51,1.51,0,0,0,0-.94L13.7,5a3,3,0,0,0-1.27,1.3,3.52,3.52,0,0,1-1.68,1.66A5.23,5.23,0,0,0,10.28,8.22Z"/><path fill="#fff" id="Caminho_6776-2" data-name="Caminho 6776" d="M6,13.84a4,4,0,0,1,.81-2.06A4.61,4.61,0,0,1,9.66,9.94a2,2,0,0,1,2.42,1.49,1.91,1.91,0,0,1,0,.92,4.66,4.66,0,0,1-3.56,3.59,2.11,2.11,0,0,1-1.69-.31A2,2,0,0,1,6,13.84Zm4.89-3a1.49,1.49,0,0,0-1.25-.18,3.94,3.94,0,0,0-2.88,2.88,1.48,1.48,0,0,0,0,.93c.32-.18.63-.34.93-.53a2.49,2.49,0,0,0,.94-1,3.69,3.69,0,0,1,1.82-1.83c.13-.07.25-.16.4-.25ZM7.23,15.05a1.55,1.55,0,0,0,1.26.18,3.91,3.91,0,0,0,2.87-2.87,1.51,1.51,0,0,0,0-.94l-.68.39a2.93,2.93,0,0,0-1.27,1.31,3.58,3.58,0,0,1-1.69,1.66C7.54,14.85,7.4,15,7.23,15.05Z"/></g></g></svg>