<svg xmlns="http://www.w3.org/2000/svg" xmlns:xlink="http://www.w3.org/1999/xlink" viewBox="0 0 16 16"><g id="titles"><g id="Grupo_4317" data-name="Grupo 4317"><path fill="#fff" id="Caminho_6778" data-name="Caminho 6778" class="cls-4" d="M1.79,4.3A3.56,3.56,0,0,1,2.5,2.48,4,4,0,0,1,5,.86,1.78,1.78,0,0,1,7.14,2.17a1.84,1.84,0,0,1,0,.81A4.1,4.1,0,0,1,4,6.15a1.84,1.84,0,0,1-1.49-.27A1.8,1.8,0,0,1,1.79,4.3ZM6.1,1.65A1.33,1.33,0,0,0,5,1.49,3.48,3.48,0,0,0,2.46,4a1.25,1.25,0,0,0,0,.81c.28-.15.56-.3.83-.46a2.22,2.22,0,0,0,.82-.9A3.34,3.34,0,0,1,5.75,1.87l.35-.21ZM2.85,5.37A1.42,1.42,0,0,0,4,5.53,3.46,3.46,0,0,0,6.49,3a1.38,1.38,0,0,0,0-.83c-.21.12-.4.24-.6.34A2.57,2.57,0,0,0,4.75,3.67,3.2,3.2,0,0,1,3.26,5.13c-.13.06-.25.15-.41.24Z"/><path fill="#fff" id="Caminho_6779" data-name="Caminho 6779" class="cls-4" d="M.09,11A3.51,3.51,0,0,1,.81,9.21a4,4,0,0,1,2.5-1.63A1.76,1.76,0,0,1,5.44,8.9a1.71,1.71,0,0,1,0,.81,4.1,4.1,0,0,1-3.13,3.17,1.9,1.9,0,0,1-1.5-.28A1.82,1.82,0,0,1,.09,11ZM4.41,8.38a1.27,1.27,0,0,0-1.1-.16A3.42,3.42,0,0,0,.77,10.76a1.28,1.28,0,0,0,0,.82c.28-.16.56-.3.82-.47a2.25,2.25,0,0,0,.83-.9,3.36,3.36,0,0,1,1.6-1.62,2.77,2.77,0,0,0,.36-.21ZM1.16,12.09a1.36,1.36,0,0,0,1.11.16A3.46,3.46,0,0,0,4.8,9.72a1.31,1.31,0,0,0,0-.83c-.21.12-.4.24-.6.34a2.6,2.6,0,0,0-1.11,1.16,3.15,3.15,0,0,1-1.49,1.46l-.41.24Z"/><path fill="#fff" id="Caminho_6780" data-name="Caminho 6780" class="cls-4" d="M6.05,7a3.67,3.67,0,0,1,.72-1.82,4,4,0,0,1,2.5-1.62,1.78,1.78,0,0,1,2.14,1.31,1.84,1.84,0,0,1,0,.81A4.1,4.1,0,0,1,8.27,8.84,1.77,1.77,0,0,1,6.05,7Zm4.32-2.65a1.33,1.33,0,0,0-1.1-.16A3.48,3.48,0,0,0,6.73,6.73a1.25,1.25,0,0,0,0,.81c.28-.15.56-.3.83-.46a2.22,2.22,0,0,0,.82-.9A3.34,3.34,0,0,1,10,4.56l.35-.22ZM7.12,8.06a1.42,1.42,0,0,0,1.12.16,3.46,3.46,0,0,0,2.52-2.53,1.38,1.38,0,0,0,0-.83c-.21.12-.4.24-.6.34A2.59,2.59,0,0,0,9,6.35,3.17,3.17,0,0,1,7.53,7.82c-.13.06-.25.15-.41.24Z"/><path fill="#fff" id="Caminho_6781" data-name="Caminho 6781" class="cls-4" d="M4.36,13.71a3.51,3.51,0,0,1,.72-1.81,4,4,0,0,1,2.5-1.63,1.77,1.77,0,0,1,2.13,1.32,1.71,1.71,0,0,1,0,.81,4.1,4.1,0,0,1-3.13,3.17,1.9,1.9,0,0,1-1.5-.28A1.82,1.82,0,0,1,4.36,13.71Zm4.32-2.64a1.27,1.27,0,0,0-1.1-.16A3.42,3.42,0,0,0,5,13.45a1.28,1.28,0,0,0,0,.82c.28-.16.56-.3.82-.47a2.25,2.25,0,0,0,.83-.9,3.36,3.36,0,0,1,1.6-1.62,2.77,2.77,0,0,0,.36-.21ZM5.43,14.78a1.36,1.36,0,0,0,1.11.16,3.46,3.46,0,0,0,2.53-2.53,1.31,1.31,0,0,0,0-.83c-.21.12-.4.24-.6.34a2.6,2.6,0,0,0-1.11,1.16,3.15,3.15,0,0,1-1.49,1.46l-.41.24Z"/><path fill="#fff" id="Caminho_6782" data-name="Caminho 6782" class="cls-4" d="M10.6,9.68a3.67,3.67,0,0,1,.72-1.82,4,4,0,0,1,2.5-1.62A1.76,1.76,0,0,1,16,7.55a1.59,1.59,0,0,1,0,.81,4.1,4.1,0,0,1-3.13,3.17,1.89,1.89,0,0,1-1.5-.27A1.84,1.84,0,0,1,10.6,9.68ZM14.92,7a1.34,1.34,0,0,0-1.1-.16,3.45,3.45,0,0,0-2.54,2.54,1.28,1.28,0,0,0,0,.82c.28-.15.56-.3.82-.47A2.16,2.16,0,0,0,13,8.87a3.28,3.28,0,0,1,1.6-1.62c.12-.06.23-.14.36-.22Zm-3.25,3.72a1.4,1.4,0,0,0,1.11.16,3.47,3.47,0,0,0,2.53-2.54,1.35,1.35,0,0,0,0-.82l-.61.34A2.62,2.62,0,0,0,13.57,9a3.17,3.17,0,0,1-1.49,1.47c-.13.06-.26.15-.41.24Z"/></g><g id="Grupo_4317-2" data-name="Grupo 4317"><path fill="#fff" id="Caminho_6778-2" data-name="Caminho 6778" d="M1.79,4.3A3.56,3.56,0,0,1,2.5,2.48,4,4,0,0,1,5,.86,1.78,1.78,0,0,1,7.14,2.17a1.84,1.84,0,0,1,0,.81A4.1,4.1,0,0,1,4,6.15a1.84,1.84,0,0,1-1.49-.27A1.8,1.8,0,0,1,1.79,4.3ZM6.1,1.65A1.33,1.33,0,0,0,5,1.49,3.48,3.48,0,0,0,2.46,4a1.25,1.25,0,0,0,0,.81c.28-.15.56-.3.83-.46a2.22,2.22,0,0,0,.82-.9A3.34,3.34,0,0,1,5.75,1.87l.35-.21ZM2.85,5.37A1.42,1.42,0,0,0,4,5.53,3.46,3.46,0,0,0,6.49,3a1.38,1.38,0,0,0,0-.83c-.21.12-.4.24-.6.34A2.57,2.57,0,0,0,4.75,3.67,3.2,3.2,0,0,1,3.26,5.13c-.13.06-.25.15-.41.24Z"/><path fill="#fff" id="Caminho_6779-2" data-name="Caminho 6779" d="M.09,11A3.51,3.51,0,0,1,.81,9.21a4,4,0,0,1,2.5-1.63A1.76,1.76,0,0,1,5.44,8.9a1.71,1.71,0,0,1,0,.81,4.1,4.1,0,0,1-3.13,3.17,1.9,1.9,0,0,1-1.5-.28A1.82,1.82,0,0,1,.09,11ZM4.41,8.38a1.27,1.27,0,0,0-1.1-.16A3.42,3.42,0,0,0,.77,10.76a1.28,1.28,0,0,0,0,.82c.28-.16.56-.3.82-.47a2.25,2.25,0,0,0,.83-.9,3.36,3.36,0,0,1,1.6-1.62,2.77,2.77,0,0,0,.36-.21ZM1.16,12.09a1.36,1.36,0,0,0,1.11.16A3.46,3.46,0,0,0,4.8,9.72a1.31,1.31,0,0,0,0-.83c-.21.12-.4.24-.6.34a2.6,2.6,0,0,0-1.11,1.16,3.15,3.15,0,0,1-1.49,1.46l-.41.24Z"/><path fill="#fff" id="Caminho_6780-2" data-name="Caminho 6780" d="M6.05,7a3.67,3.67,0,0,1,.72-1.82,4,4,0,0,1,2.5-1.62,1.78,1.78,0,0,1,2.14,1.31,1.84,1.84,0,0,1,0,.81A4.1,4.1,0,0,1,8.27,8.84,1.77,1.77,0,0,1,6.05,7Zm4.32-2.65a1.33,1.33,0,0,0-1.1-.16A3.48,3.48,0,0,0,6.73,6.73a1.25,1.25,0,0,0,0,.81c.28-.15.56-.3.83-.46a2.22,2.22,0,0,0,.82-.9A3.34,3.34,0,0,1,10,4.56l.35-.22ZM7.12,8.06a1.42,1.42,0,0,0,1.12.16,3.46,3.46,0,0,0,2.52-2.53,1.38,1.38,0,0,0,0-.83c-.21.12-.4.24-.6.34A2.59,2.59,0,0,0,9,6.35,3.17,3.17,0,0,1,7.53,7.82c-.13.06-.25.15-.41.24Z"/><path fill="#fff" id="Caminho_6781-2" data-name="Caminho 6781" d="M4.36,13.71a3.51,3.51,0,0,1,.72-1.81,4,4,0,0,1,2.5-1.63,1.77,1.77,0,0,1,2.13,1.32,1.71,1.71,0,0,1,0,.81,4.1,4.1,0,0,1-3.13,3.17,1.9,1.9,0,0,1-1.5-.28A1.82,1.82,0,0,1,4.36,13.71Zm4.32-2.64a1.27,1.27,0,0,0-1.1-.16A3.42,3.42,0,0,0,5,13.45a1.28,1.28,0,0,0,0,.82c.28-.16.56-.3.82-.47a2.25,2.25,0,0,0,.83-.9,3.36,3.36,0,0,1,1.6-1.62,2.77,2.77,0,0,0,.36-.21ZM5.43,14.78a1.36,1.36,0,0,0,1.11.16,3.46,3.46,0,0,0,2.53-2.53,1.31,1.31,0,0,0,0-.83c-.21.12-.4.24-.6.34a2.6,2.6,0,0,0-1.11,1.16,3.15,3.15,0,0,1-1.49,1.46l-.41.24Z"/><path fill="#fff" id="Caminho_6782-2" data-name="Caminho 6782" d="M10.6,9.68a3.67,3.67,0,0,1,.72-1.82,4,4,0,0,1,2.5-1.62A1.76,1.76,0,0,1,16,7.55a1.59,1.59,0,0,1,0,.81,4.1,4.1,0,0,1-3.13,3.17,1.89,1.89,0,0,1-1.5-.27A1.84,1.84,0,0,1,10.6,9.68ZM14.92,7a1.34,1.34,0,0,0-1.1-.16,3.45,3.45,0,0,0-2.54,2.54,1.28,1.28,0,0,0,0,.82c.28-.15.56-.3.82-.47A2.16,2.16,0,0,0,13,8.87a3.28,3.28,0,0,1,1.6-1.62c.12-.06.23-.14.36-.22Zm-3.25,3.72a1.4,1.4,0,0,0,1.11.16,3.47,3.47,0,0,0,2.53-2.54,1.35,1.35,0,0,0,0-.82l-.61.34A2.62,2.62,0,0,0,13.57,9a3.17,3.17,0,0,1-1.49,1.47c-.13.06-.26.15-.41.24Z"/></g></g></svg>