<svg xmlns="http://www.w3.org/2000/svg" xmlns:xlink="http://www.w3.org/1999/xlink" viewBox="0 0 16 16"><g id="titles"><path id="Caminho_6764" data-name="Caminho 6764" fill="#fff" d="M.15,10.31A10.28,10.28,0,0,1,2.24,5,11.67,11.67,0,0,1,9.52.28a5.17,5.17,0,0,1,6.23,6.19,12,12,0,0,1-9.14,9.24,5.49,5.49,0,0,1-4.35-.8A5.26,5.26,0,0,1,.15,10.31ZM12.72,2.6a3.79,3.79,0,0,0-3.21-.47,10.08,10.08,0,0,0-7.4,7.41,3.73,3.73,0,0,0,.09,2.38c.82-.46,1.63-.87,2.4-1.36A6.41,6.41,0,0,0,7,7.94a9.68,9.68,0,0,1,4.67-4.71c.35-.17.66-.4,1-.63ZM3.26,13.42a4,4,0,0,0,3.24.46,10.06,10.06,0,0,0,7.37-7.37,3.92,3.92,0,0,0-.08-2.42c-.61.36-1.17.7-1.74,1A7.54,7.54,0,0,0,8.79,8.46a9.2,9.2,0,0,1-4.34,4.26c-.38.19-.74.43-1.19.7Z"/></g></svg>