<svg xmlns="http://www.w3.org/2000/svg" xmlns:xlink="http://www.w3.org/1999/xlink" viewBox="0 0 16 16"><g id="titles"><g id="Grupo_4421" data-name="Grupo 4421"><path fill="#fff" id="Caminho_6769" data-name="Caminho 6769" class="cls-4" d="M2.64,5.05a4.93,4.93,0,0,1,1-2.51A5.49,5.49,0,0,1,7.08.3,2.44,2.44,0,0,1,10,2.11a2.49,2.49,0,0,1,0,1.12A5.65,5.65,0,0,1,5.71,7.61a2.61,2.61,0,0,1-2.07-.37A2.54,2.54,0,0,1,2.64,5.05Zm6-3.65a1.8,1.8,0,0,0-1.53-.22A4.78,4.78,0,0,0,3.57,4.69a1.75,1.75,0,0,0,.05,1.13c.38-.22.77-.42,1.14-.65A3,3,0,0,0,5.9,3.93,4.56,4.56,0,0,1,8.11,1.7c.17-.08.31-.19.5-.3ZM4.12,6.53a1.88,1.88,0,0,0,1.53.22,4.77,4.77,0,0,0,3.5-3.5,1.85,1.85,0,0,0,0-1.14c-.29.17-.55.33-.83.47a3.56,3.56,0,0,0-1.54,1.6,4.43,4.43,0,0,1-2.06,2C4.5,6.29,4.33,6.4,4.12,6.53Z"/><path fill="#fff" id="Caminho_6770" data-name="Caminho 6770" class="cls-4" d="M8.54,8.77a4.92,4.92,0,0,1,1-2.51A5.55,5.55,0,0,1,13,4a2.45,2.45,0,0,1,2.95,1.82,2.49,2.49,0,0,1,0,1.12,5.67,5.67,0,0,1-4.34,4.38A2.6,2.6,0,0,1,9.54,11,2.52,2.52,0,0,1,8.54,8.77Zm6-3.66A1.84,1.84,0,0,0,13,4.89,4.8,4.8,0,0,0,9.47,8.4a1.85,1.85,0,0,0,0,1.14c.39-.22.78-.42,1.14-.65A3.05,3.05,0,0,0,11.8,7.65,4.54,4.54,0,0,1,14,5.41a4.64,4.64,0,0,0,.49-.3ZM10,10.25a1.94,1.94,0,0,0,1.54.21A4.77,4.77,0,0,0,15.05,7a1.88,1.88,0,0,0,0-1.15l-.83.48a3.54,3.54,0,0,0-1.54,1.59,4.34,4.34,0,0,1-2.06,2C10.4,10,10.23,10.12,10,10.25Z"/><path fill="#fff" id="Caminho_6771" data-name="Caminho 6771" class="cls-4" d="M.21,13.37a4.85,4.85,0,0,1,1-2.51A5.52,5.52,0,0,1,4.65,8.61,2.45,2.45,0,0,1,7.6,10.43a2.36,2.36,0,0,1,0,1.12,5.67,5.67,0,0,1-4.33,4.38,2.59,2.59,0,0,1-2.06-.38A2.49,2.49,0,0,1,.21,13.37Zm6-3.66a1.82,1.82,0,0,0-1.52-.22A4.78,4.78,0,0,0,1.14,13a1.75,1.75,0,0,0,0,1.13c.39-.21.78-.41,1.14-.64a3,3,0,0,0,1.14-1.25A4.58,4.58,0,0,1,5.68,10a4.64,4.64,0,0,0,.49-.3ZM1.68,14.84a1.9,1.9,0,0,0,1.54.22,4.76,4.76,0,0,0,3.49-3.49,1.88,1.88,0,0,0,0-1.15l-.83.48A3.56,3.56,0,0,0,4.3,12.49a4.32,4.32,0,0,1-2,2C2.07,14.6,1.9,14.72,1.68,14.84Z"/></g><g id="Grupo_4421-2" data-name="Grupo 4421"><path fill="#fff" id="Caminho_6769-2" data-name="Caminho 6769" d="M2.64,5.05a4.93,4.93,0,0,1,1-2.51A5.49,5.49,0,0,1,7.08.3,2.44,2.44,0,0,1,10,2.11a2.49,2.49,0,0,1,0,1.12A5.65,5.65,0,0,1,5.71,7.61a2.61,2.61,0,0,1-2.07-.37A2.54,2.54,0,0,1,2.64,5.05Zm6-3.65a1.8,1.8,0,0,0-1.53-.22A4.78,4.78,0,0,0,3.57,4.69a1.75,1.75,0,0,0,.05,1.13c.38-.22.77-.42,1.14-.65A3,3,0,0,0,5.9,3.93,4.56,4.56,0,0,1,8.11,1.7c.17-.08.31-.19.5-.3ZM4.12,6.53a1.88,1.88,0,0,0,1.53.22,4.77,4.77,0,0,0,3.5-3.5,1.85,1.85,0,0,0,0-1.14c-.29.17-.55.33-.83.47a3.56,3.56,0,0,0-1.54,1.6,4.43,4.43,0,0,1-2.06,2C4.5,6.29,4.33,6.4,4.12,6.53Z"/><path fill="#fff" id="Caminho_6770-2" data-name="Caminho 6770" d="M8.54,8.77a4.92,4.92,0,0,1,1-2.51A5.55,5.55,0,0,1,13,4a2.45,2.45,0,0,1,2.95,1.82,2.49,2.49,0,0,1,0,1.12,5.67,5.67,0,0,1-4.34,4.38A2.6,2.6,0,0,1,9.54,11,2.52,2.52,0,0,1,8.54,8.77Zm6-3.66A1.84,1.84,0,0,0,13,4.89,4.8,4.8,0,0,0,9.47,8.4a1.85,1.85,0,0,0,0,1.14c.39-.22.78-.42,1.14-.65A3.05,3.05,0,0,0,11.8,7.65,4.54,4.54,0,0,1,14,5.41a4.64,4.64,0,0,0,.49-.3ZM10,10.25a1.94,1.94,0,0,0,1.54.21A4.77,4.77,0,0,0,15.05,7a1.88,1.88,0,0,0,0-1.15l-.83.48a3.54,3.54,0,0,0-1.54,1.59,4.34,4.34,0,0,1-2.06,2C10.4,10,10.23,10.12,10,10.25Z"/><path fill="#fff" id="Caminho_6771-2" data-name="Caminho 6771" d="M.21,13.37a4.85,4.85,0,0,1,1-2.51A5.52,5.52,0,0,1,4.65,8.61,2.45,2.45,0,0,1,7.6,10.43a2.36,2.36,0,0,1,0,1.12,5.67,5.67,0,0,1-4.33,4.38,2.59,2.59,0,0,1-2.06-.38A2.49,2.49,0,0,1,.21,13.37Zm6-3.66a1.82,1.82,0,0,0-1.52-.22A4.78,4.78,0,0,0,1.14,13a1.75,1.75,0,0,0,0,1.13c.39-.21.78-.41,1.14-.64a3,3,0,0,0,1.14-1.25A4.58,4.58,0,0,1,5.68,10a4.64,4.64,0,0,0,.49-.3ZM1.68,14.84a1.9,1.9,0,0,0,1.54.22,4.76,4.76,0,0,0,3.49-3.49,1.88,1.88,0,0,0,0-1.15l-.83.48A3.56,3.56,0,0,0,4.3,12.49a4.32,4.32,0,0,1-2,2C2.07,14.6,1.9,14.72,1.68,14.84Z"/></g></g></svg>