<svg xmlns="http://www.w3.org/2000/svg" width="49.9" height="18.2" viewBox="0 0 49.9 18.2">
  <path data-name="Path 586" d="M19.6 0H3.8a1.6 1.6 0 0 0-1.5 2.4l1.6 3H1.1a1 1 0 0 0-1 1.5l5.1 9.7a1 1 0 0 0 1.9 0L8.5 14l1.7 3.3a1.6 1.6 0 0 0 2.9 0l8-15A1.6 1.6 0 0 0 19.5 0Zm-7 6.4L9 12.8a.7.7 0 0 1-1.3 0L4.5 6.4a.7.7 0 0 1 .6-1h6.8a.7.7 0 0 1 .6 1Z" fill="#999"/>
  <path data-name="Path 587" d="M36.5 7h-1.7v5.9a.2.2 0 0 1-.2.2h-1.4a.2.2 0 0 1-.2-.2v-6h-1.7a.2.2 0 0 1-.2-.2v-1a.2.2 0 0 1 .2-.2h5.2a.2.2 0 0 1 .2.2v1a.2.2 0 0 1-.2.2Z" fill="#999"/>
  <path data-name="Path 588" d="M42 13a13.4 13.4 0 0 1-2 .2c-1.3 0-2.5-.4-2.5-2.2V7.6c0-1.9 1.2-2.2 2.5-2.2a13.2 13.2 0 0 1 2 .1c.2 0 .3.1.3.2v1a.2.2 0 0 1-.2.2h-2.2c-.5 0-.6.1-.6.7v1H42a.2.2 0 0 1 .2.1v1a.2.2 0 0 1-.2.2h-2.7v1c0 .6.1.8.6.8h2.2a.2.2 0 0 1 .2.2v1l-.2.1Z" fill="#999"/>
  <path data-name="Path 589" d="M49.8 13h-1.6a.3.3 0 0 1-.3 0l-1.4-2.3-1.3 2.2-.2.2h-1.6a.1.1 0 0 1-.1-.2l2.2-3.7-2.2-3.5a.1.1 0 0 1 .1-.2h1.7s.2 0 .2.2l1.3 2 1.3-2a.3.3 0 0 1 .2-.2h1.6a.1.1 0 0 1 .1.1l-2.2 3.6 2.3 3.7-.1.2Z" fill="#999"/>
  <path data-name="Path 590" d="M28.6 5.5a.2.2 0 0 0-.1.1L27 11.1l-.1.2c-.1 0-.2 0-.2-.2l-1.5-5.5a.2.2 0 0 0-.1 0h-1.5a.2.2 0 0 0-.1.1s1.8 6.3 1.8 6.4a1.5 1.5 0 0 0 1.6 1 1.6 1.6 0 0 0 1.5-1l1.8-6.4a.2.2 0 0 0-.1-.2Z" fill="#999"/>
  <path data-name="Path 591" d="M19.6 0H3.8a1.6 1.6 0 0 0-1.5 2.4l1.6 3H1.1a1 1 0 0 0-1 1.5l5.1 9.7a1 1 0 0 0 1.9 0L8.5 14l1.7 3.3a1.6 1.6 0 0 0 2.9 0l8-15A1.6 1.6 0 0 0 19.5 0Zm-7 6.4L9 12.8a.7.7 0 0 1-1.3 0L4.5 6.4a.7.7 0 0 1 .6-1h6.8a.7.7 0 0 1 .6 1Z" fill="#999"/>
</svg>