<svg xmlns="http://www.w3.org/2000/svg" width="129.001" height="84.123" viewBox="0 0 129.001 84.123"><g data-name="logo_santamonica (1) (1)"><g data-name="Group 1178"><path data-name="Path 817" d="M25.8 80.731a6.366 6.366 0 0 1 .171-1.906 2 2 0 0 1 2.07-1.463 2.055 2.055 0 0 1 1.976 1.214.1.1 0 0 1-.031.124l-.319.156a.085.085 0 0 1-.124-.039 1.6 1.6 0 0 0-1.5-.934 1.483 1.483 0 0 0-1.541 1.089 5.9 5.9 0 0 0-.148 1.766 5.7 5.7 0 0 0 .148 1.766 1.491 1.491 0 0 0 1.541 1.089 1.6 1.6 0 0 0 1.5-.934c.031-.047.078-.07.124-.039l.319.156a.1.1 0 0 1 .031.124 2.055 2.055 0 0 1-1.976 1.214 2 2 0 0 1-2.07-1.463 6.58 6.58 0 0 1-.171-1.922" fill="#243746"/><g data-name="Group 1170"><path data-name="Path 818" d="M34.257 77.463c.023-.062.062-.1.117-.1h.358a.112.112 0 0 1 .117.1l2.334 6.536c.023.062-.008.1-.07.1h-.39c-.07 0-.109-.016-.124-.1l-.591-1.657h-2.934l-.591 1.657c-.031.078-.07.1-.132.1h-.389c-.062 0-.086-.039-.07-.1Zm1.564 4.341-1.26-3.525h-.031l-1.268 3.525Z" fill="#243746"/></g><g data-name="Group 1171"><path data-name="Path 819" d="M39.424 77.463a.094.094 0 0 1 .1-.1h3.852a.094.094 0 0 1 .1.1v.335a.094.094 0 0 1-.1.1h-3.33a.057.057 0 0 0-.062.062v2.466c0 .039.016.062.062.062h2.863a.094.094 0 0 1 .1.1v.335a.094.094 0 0 1-.1.1h-2.863c-.039 0-.062.016-.062.062v2.925a.094.094 0 0 1-.1.1h-.366a.094.094 0 0 1-.1-.1v-6.551Z" fill="#243746"/></g><g data-name="Group 1172"><path data-name="Path 820" d="M45.866 77.463a.094.094 0 0 1 .1-.1h3.851a.094.094 0 0 1 .1.1v.342c0 .062-.039.093-.1.093h-3.33a.057.057 0 0 0-.062.062v2.4a.057.057 0 0 0 .062.062h2.869a.094.094 0 0 1 .1.1v.335a.094.094 0 0 1-.1.1h-2.868c-.039 0-.062.016-.062.062v2.5a.057.057 0 0 0 .062.062h3.33a.094.094 0 0 1 .1.1v.335a.094.094 0 0 1-.1.1h-3.851a.094.094 0 0 1-.1-.1Zm1.618-.934c-.062 0-.086-.039-.039-.1l.809-1.035a.2.2 0 0 1 .179-.1h.4c.062 0 .078.047.039.1l-.949 1.043a.191.191 0 0 1-.179.086h-.257Z" fill="#243746"/></g><path data-name="Path 821" d="M55.568 80.731a6.229 6.229 0 0 1 .179-1.9 2.064 2.064 0 0 1 2.14-1.471 2.117 2.117 0 0 1 2.054 1.214.093.093 0 0 1-.039.124l-.314.154a.093.093 0 0 1-.124-.039 1.655 1.655 0 0 0-1.587-.934 1.547 1.547 0 0 0-1.6 1.1 9.838 9.838 0 0 0 0 3.486 1.714 1.714 0 0 0 3.2.016 3.9 3.9 0 0 0 .156-1.253c0-.039-.016-.055-.054-.055h-1.478a.09.09 0 0 1-.093-.093v-.319a.09.09 0 0 1 .093-.093h1.987a.09.09 0 0 1 .093.093v.4a5.221 5.221 0 0 1-.171 1.455 2.276 2.276 0 0 1-4.264.016 6.373 6.373 0 0 1-.179-1.906" fill="#243746"/><path data-name="Path 822" d="M62.784 82.629a9.361 9.361 0 0 1 0-3.8 2.252 2.252 0 0 1 4.225 0 9.361 9.361 0 0 1 0 3.8 2.252 2.252 0 0 1-4.225 0m3.7-3.649a1.687 1.687 0 0 0-3.167 0 9.377 9.377 0 0 0 0 3.486 1.687 1.687 0 0 0 3.167 0 9.377 9.377 0 0 0 0-3.486" fill="#243746"/><g data-name="Group 1173"><path data-name="Path 823" d="M70.359 81.711c0 1.253.638 1.86 1.688 1.86 1.066 0 1.7-.607 1.7-1.86v-4.264c0-.062.039-.093.1-.093h.366a.086.086 0 0 1 .093.093v4.248a2.257 2.257 0 1 1-4.5 0v-4.248c0-.062.039-.093.1-.093h.358a.092.092 0 0 1 .1.093Z" fill="#243746"/></g><g data-name="Group 1174"><path data-name="Path 824" d="M81.111 84.1c-.062 0-.093-.016-.117-.093l-1.416-2.925h-1.836a.057.057 0 0 0-.062.062v2.855a.094.094 0 0 1-.1.1h-.366a.094.094 0 0 1-.1-.1v-6.536a.094.094 0 0 1 .1-.1h2.256a1.823 1.823 0 0 1 2.054 1.86 1.712 1.712 0 0 1-1.377 1.782l1.463 2.98c.039.062.008.109-.047.109h-.451Zm-.148-4.871c0-.84-.537-1.33-1.494-1.33h-1.727a.057.057 0 0 0-.062.062v2.536a.057.057 0 0 0 .062.062h1.727c.957-.008 1.494-.482 1.494-1.33" fill="#243746"/></g><g data-name="Group 1175"><path data-name="Path 825" d="M84.2 77.463a.094.094 0 0 1 .1-.1h.373a.149.149 0 0 1 .148.1l2.186 4.824h.039l2.14-4.824a.146.146 0 0 1 .14-.1h.389a.094.094 0 0 1 .1.1v6.536a.094.094 0 0 1-.1.1h-.366a.094.094 0 0 1-.1-.1v-5.267h-.031l-1.945 4.271a.166.166 0 0 1-.179.109h-.2a.168.168 0 0 1-.171-.109l-1.945-4.271h-.031v5.267a.094.094 0 0 1-.1.1h-.366a.094.094 0 0 1-.1-.1v-6.536Z" fill="#243746"/></g><g data-name="Group 1176"><path data-name="Path 826" d="M92.666 77.463a.094.094 0 0 1 .1-.1h3.851a.094.094 0 0 1 .1.1v.335a.094.094 0 0 1-.1.1h-3.33a.057.057 0 0 0-.062.062v2.4c0 .039.016.062.062.062h2.863a.094.094 0 0 1 .1.1v.33a.094.094 0 0 1-.1.1h-2.863c-.039 0-.062.016-.062.062v2.5c0 .039.016.062.062.062h3.33a.094.094 0 0 1 .1.1v.342a.094.094 0 0 1-.1.1h-3.851a.094.094 0 0 1-.1-.1Z" fill="#243746"/></g><g data-name="Group 1177"><path data-name="Path 827" d="M100.654 84.1a.094.094 0 0 1-.1-.1v-6.046c0-.039-.016-.062-.062-.062h-1.938a.094.094 0 0 1-.1-.1v-.338a.094.094 0 0 1 .1-.1h4.567a.094.094 0 0 1 .1.1v.335a.094.094 0 0 1-.1.1h-1.945a.057.057 0 0 0-.062.062v6.045a.094.094 0 0 1-.1.1Z" fill="#243746"/></g></g><g data-name="Group 1187"><path data-name="Path 828" d="m0 62.999.77-.91a5.264 5.264 0 0 0 3.781 1.556c1.478 0 2.459-.786 2.459-1.875v-.031c0-1.027-.552-1.611-2.871-2.093C1.603 59.093.44 58.276.44 56.463v-.039c0-1.735 1.525-3.011 3.626-3.011a5.778 5.778 0 0 1 3.874 1.354l-.724.965a4.86 4.86 0 0 0-3.182-1.2c-1.432 0-2.35.786-2.35 1.782v.031c0 1.043.568 1.626 3 2.14 2.459.537 3.595 1.432 3.595 3.12v.031c0 1.891-1.572 3.12-3.766 3.12a6.47 6.47 0 0 1-4.5-1.758" fill="#243746"/><g data-name="Group 1179"><path data-name="Path 829" d="M14.721 53.413h1.187l5.135 11.344h-1.366l-1.323-2.974h-6.131l-1.338 2.972H9.578Zm3.143 7.228-2.556-5.742-2.575 5.742Z" fill="#243746"/></g><g data-name="Group 1180"><path data-name="Path 830" d="M23.131 53.413h1.2l7.142 9.1v-9.1h1.253v11.344h-1.029l-7.321-9.3v9.3h-1.245Z" fill="#243746"/></g><g data-name="Group 1181"><path data-name="Path 831" d="M38.747 54.603h-3.8v-1.19h8.909v1.19h-3.8v10.154h-1.3Z" fill="#243746"/></g><g data-name="Group 1182"><path data-name="Path 832" d="M48.838 53.413h1.19l5.135 11.344h-1.369l-1.315-2.974h-6.131l-1.338 2.972h-1.307Zm3.135 7.228-2.56-5.742-2.575 5.742Z" fill="#243746"/></g><g data-name="Group 1183"><path data-name="Path 833" d="M62.018 53.413h1.3l4.131 6.193 4.131-6.193h1.3v11.344h-1.284v-9.189l-4.131 6.084h-.062l-4.131-6.061v9.165h-1.254Z" fill="#243746"/></g><path data-name="Path 834" d="M75.564 59.116v-.033a5.595 5.595 0 1 1 11.188-.031v.031a5.595 5.595 0 1 1-11.188.031m9.9 0v-.031a4.364 4.364 0 0 0-4.326-4.528 4.312 4.312 0 0 0-4.295 4.5v.028a4.359 4.359 0 0 0 4.326 4.528 4.3 4.3 0 0 0 4.295-4.5" fill="#243746"/><g data-name="Group 1184"><path data-name="Path 835" d="M89.445 53.413h1.2l7.15 9.1v-9.1h1.245v11.344h-1.019l-7.329-9.3v9.3h-1.247Z" fill="#243746"/></g><g data-name="Group 1185"><path data-name="Rectangle 634" fill="#243746" d="M102.228 53.413h1.284v11.344h-1.284z"/></g><path data-name="Path 836" d="M106.367 59.116v-.033a5.529 5.529 0 0 1 5.548-5.672 5.709 5.709 0 0 1 4.279 1.743l-.848.91a4.764 4.764 0 0 0-3.447-1.5 4.3 4.3 0 0 0-4.248 4.5v.031a4.331 4.331 0 0 0 4.248 4.528 4.786 4.786 0 0 0 3.54-1.579l.817.8a5.712 5.712 0 0 1-4.388 1.93 5.492 5.492 0 0 1-5.5-5.656" fill="#243746"/><g data-name="Group 1186"><path data-name="Path 837" d="m122.667 53.413-5.127 11.344h1.3l1.338-2.972h6.132l1.323 2.972h1.369l-5.136-11.344Zm.583 1.486 2.56 5.742h-5.135Z" fill="#243746"/></g></g><g data-name="Group 1191"><g data-name="Group 1188"><path data-name="Path 838" d="M64.414 0c-6.707 0-12.145 2-12.145 4.458a1.648 1.648 0 0 0 .039.342C52.783 2.645 58.019.949 64.414.949S76.038 2.649 76.52 4.8a1.712 1.712 0 0 0 .039-.342C76.56 2 71.121 0 64.414 0Z" fill="#243746"/></g><g data-name="Group 1189"><path data-name="Path 839" d="M64.531 12.238a21.571 21.571 0 0 0-2.583 10.348v.031c0 .054.335 5.571-3 13.141l-.568 1.237a1.071 1.071 0 0 1-1.821.21c-3.019-3.385-4.956-8.675-4.956-14.62 0-5.789 1.836-10.955 4.723-14.347-2.49-.762-4.054-1.875-4.054-3.112a1.433 1.433 0 0 1 .039-.319c.257 1.237 1.883 2.334 4.326 3.081a10.549 10.549 0 0 1 7.78-3.8 9.87 9.87 0 0 1 5.672 1.649.981.981 0 0 1-.2 1.719 10.417 10.417 0 0 0-5.358 4.782Z" fill="#243746"/></g><g data-name="Group 1190"><path data-name="Path 840" d="M72.778 8.151c2.326-.762 3.781-1.836 3.781-3.027a1.431 1.431 0 0 0-.039-.319c-.28 1.362-2.233 2.552-5.1 3.3 0 0-1.541.4-2.661.825a.853.853 0 0 0-.459 1.167c.023.047.039.093.062.14a9.44 9.44 0 0 1 .8 2.785 9.339 9.339 0 0 1-.4 4.139.813.813 0 0 0-.078.545c.163 1.1 1.292 2.505 1.393 3s-1.159.817-1.424.965c-.443.241-1.027 3.151-1.027 3.151-.272 1.292-.514 1.369-.514 1.369-.809.514-2.614-.109-4.131-.809a.06.06 0 0 1-.023-.008 35.117 35.117 0 0 1-1.992 8.232c-.28.762-.6 1.556-.957 2.373 0 0-1.548 3.034 1.19 4.271a8.32 8.32 0 0 0 3.408.661c7.072 0 12.807-8.286 12.807-18.5a22.46 22.46 0 0 0-4.636-14.26Z" fill="#243746"/></g></g></g></svg>