<svg xmlns="http://www.w3.org/2000/svg" viewBox="0 0 560.84 158.91"><defs><style>.cls-1{fill:#999;}.cls-2{fill:#999;}</style></defs><title>2bdigital</title><g id="Camada_2" data-name="Camada 2"><g id="Layer_1" data-name="Layer 1"><g id="_Grupo_" data-name="&lt;Grupo&gt;"><path id="_Caminho_composto_" data-name="&lt;Caminho composto&gt;" class="cls-1" d="M507.94,73.91a42.31,42.31,0,0,0-42.3-42.3h0a42.31,42.31,0,0,0-42.3,42.3h0a42.31,42.31,0,0,0,42.3,42.3h0a42.39,42.39,0,0,0,31.7-14.3v9.4a5.34,5.34,0,0,0,5.3,5.3h0a5.34,5.34,0,0,0,5.3-5.3V74.21h0v-.3Zm-42.3,31.7h0a31.71,31.71,0,0,1-31.7-31.7h0a31.71,31.71,0,0,1,31.7-31.7h0a31.71,31.71,0,0,1,31.7,31.7h0A31.71,31.71,0,0,1,465.64,105.61Z"/><path id="_Caminho_composto_2" data-name="&lt;Caminho composto&gt;" class="cls-2" d="M116.44,31.81h0a41.89,41.89,0,0,0-21.1,5.7V10.61A10.61,10.61,0,0,0,84.74,0h0a10.61,10.61,0,0,0-10.6,10.6v63.5h0a42.31,42.31,0,0,0,42.3,42.3h0a42.31,42.31,0,0,0,42.3-42.3h0A42.38,42.38,0,0,0,116.44,31.81Zm21.2,42.3a21.21,21.21,0,0,1-21.2,21.2h0a21.21,21.21,0,0,1-21.2-21.2h0a21.21,21.21,0,0,1,21.2-21.2h0a21.21,21.21,0,0,1,21.2,21.2Z"/><g id="_Grupo_2" data-name="&lt;Grupo&gt;"><path id="_Caminho_" data-name="&lt;Caminho&gt;" class="cls-1" d="M365.24,31.81a5.34,5.34,0,0,0-5.3,5.3v74.1a5.3,5.3,0,0,0,10.6,0V37.11A5.27,5.27,0,0,0,365.24,31.81Z"/><circle id="_Caminho_2" data-name="&lt;Caminho&gt;" class="cls-1" cx="365.14" cy="15.91" r="5.3"/></g><g id="_Grupo_3" data-name="&lt;Grupo&gt;"><path id="_Caminho_3" data-name="&lt;Caminho&gt;" class="cls-1" d="M248.84,31.81a5.34,5.34,0,0,0-5.3,5.3v74.1a5.3,5.3,0,0,0,10.6,0V37.11A5.27,5.27,0,0,0,248.84,31.81Z"/><circle id="_Caminho_4" data-name="&lt;Caminho&gt;" class="cls-1" cx="248.64" cy="15.91" r="5.3"/></g><path id="_Caminho_composto_3" data-name="&lt;Caminho composto&gt;" class="cls-1" d="M349.24,73.91a42.31,42.31,0,0,0-42.3-42.3h0a42.31,42.31,0,0,0-42.3,42.3h0a42.31,42.31,0,0,0,42.3,42.3h0a42.39,42.39,0,0,0,31.7-14.3v14.6h0v.3a31.71,31.71,0,0,1-31.7,31.7h0a31.87,31.87,0,0,1-31.4-27.4,5.26,5.26,0,1,0-10.4,1.6,42.35,42.35,0,0,0,41.9,36.2h0a42.33,42.33,0,0,0,42.3-41.4V74.21h0l-.1-.3Zm-42.4,31.9h0a31.71,31.71,0,0,1-31.7-31.7h0a31.71,31.71,0,0,1,31.7-31.7h0a31.71,31.71,0,0,1,31.7,31.7v.1A31.56,31.56,0,0,1,306.84,105.81Z"/><path id="_Caminho_5" data-name="&lt;Caminho&gt;" class="cls-2" d="M68.74,95.21H42.14l26.6-20V9.31A42.45,42.45,0,0,0,35.64.51h0A42.32,42.32,0,0,0,.54,49h0a46.94,46.94,0,0,0,1.9,7.6,10.48,10.48,0,0,0,16.5,4.6l.2-.1a10.72,10.72,0,0,0,3.2-11.9,22.21,22.21,0,0,1-.9-3.7h0A21.14,21.14,0,0,1,39,21.31h0a21.14,21.14,0,0,1,24.2,17.6h0A21.25,21.25,0,0,1,56.54,58c-.1.1-.1.1-.2.1L4.24,97.41l-.1.1a.78.78,0,0,0-.4.4l-.4.4-.2.2a2.65,2.65,0,0,0-.5.6h0a10.66,10.66,0,0,0-.3,13.1h0a10.46,10.46,0,0,0,9.1,4.2h57.5a10.61,10.61,0,0,0,10.6-10.6h0A10.91,10.91,0,0,0,68.74,95.21Z"/><path id="_Caminho_composto_4" data-name="&lt;Caminho composto&gt;" class="cls-1" d="M232.84,72.51V5.31a5.34,5.34,0,0,0-5.3-5.3h0a5.34,5.34,0,0,0-5.3,5.3v40.8a42.2,42.2,0,0,0-31.7-14.3h0a42.31,42.31,0,0,0-42.3,42.3h0a42.31,42.31,0,0,0,42.3,42.3h0a42.31,42.31,0,0,0,42.3-42.3h0Zm-10.6,1.6a31.71,31.71,0,0,1-31.7,31.7h0a31.71,31.71,0,0,1-31.7-31.7h0a31.71,31.71,0,0,1,31.7-31.7h0a31.58,31.58,0,0,1,31.7,31.7Z"/><path id="_Caminho_6" data-name="&lt;Caminho&gt;" class="cls-1" d="M418.74,105.91a31.31,31.31,0,0,1-18-9h0a32,32,0,0,1-9.3-22.2V42.41h15.8a5.3,5.3,0,1,0,0-10.6h-15.8V5.41a5.3,5.3,0,1,0-10.6,0v69.7h0a42.43,42.43,0,0,0,12.4,29.3h0a42.36,42.36,0,0,0,24,12,5.27,5.27,0,0,0,6-5.2A5.21,5.21,0,0,0,418.74,105.91Z"/><path id="_Caminho_7" data-name="&lt;Caminho&gt;" class="cls-1" d="M556.34,105.91a31.31,31.31,0,0,1-18-9h0a32,32,0,0,1-9.3-22.2V5.51a5.3,5.3,0,1,0-10.6,0v69.7h0a42.43,42.43,0,0,0,12.4,29.3h0a42.36,42.36,0,0,0,24,12,5.35,5.35,0,0,0,1.5-10.6Z"/></g></g></g></svg>