<svg xmlns="http://www.w3.org/2000/svg" width="215.47" height="52.571" viewBox="0 0 215.47 52.571">
  <g id="logo_santamonica_1_" data-name="logo_santamonica (1)" transform="translate(-103.89 -17.08)">
    <g id="Group_1200" data-name="Group 1200" transform="translate(116 -55.549)">
      <path id="Path_841" data-name="Path 841" d="M70.72,120.84a8.182,8.182,0,0,1,.22-2.45,2.574,2.574,0,0,1,2.66-1.88,2.641,2.641,0,0,1,2.54,1.56.125.125,0,0,1-.04.16l-.41.2a.109.109,0,0,1-.16-.05,2.056,2.056,0,0,0-1.93-1.2,1.906,1.906,0,0,0-1.98,1.4,7.589,7.589,0,0,0-.19,2.27,7.331,7.331,0,0,0,.19,2.27,1.916,1.916,0,0,0,1.98,1.4,2.056,2.056,0,0,0,1.93-1.2c.04-.06.1-.09.16-.05l.41.2a.125.125,0,0,1,.04.16,2.641,2.641,0,0,1-2.54,1.56,2.574,2.574,0,0,1-2.66-1.88,8.457,8.457,0,0,1-.22-2.47" fill="#fce7c2"/>
      <g id="Group_1192" data-name="Group 1192">
        <path id="Path_842" data-name="Path 842" d="M81.59,116.64c.03-.08.08-.13.15-.13h.46a.143.143,0,0,1,.15.13l3,8.4c.03.08-.01.13-.09.13h-.5c-.09,0-.14-.02-.16-.13l-.76-2.13H80.07l-.76,2.13c-.04.1-.09.13-.17.13h-.5c-.08,0-.11-.05-.09-.13Zm2.01,5.58-1.62-4.53h-.04l-1.63,4.53Z" fill="#fce7c2"/>
      </g>
      <g id="Group_1193" data-name="Group 1193">
        <path id="Path_843" data-name="Path 843" d="M88.23,116.64a.121.121,0,0,1,.13-.13h4.95a.121.121,0,0,1,.13.13v.43a.121.121,0,0,1-.13.13H89.03a.074.074,0,0,0-.08.08v3.17c0,.05.02.08.08.08h3.68a.121.121,0,0,1,.13.13v.43a.121.121,0,0,1-.13.13H89.03c-.05,0-.08.02-.08.08v3.76a.121.121,0,0,1-.13.13h-.47a.121.121,0,0,1-.13-.13v-8.42Z" fill="#fce7c2"/>
      </g>
      <g id="Group_1194" data-name="Group 1194">
        <path id="Path_844" data-name="Path 844" d="M96.51,116.64a.121.121,0,0,1,.13-.13h4.95a.121.121,0,0,1,.13.13v.44c0,.08-.05.12-.13.12H97.31a.074.074,0,0,0-.08.08v3.08a.074.074,0,0,0,.08.08h3.68a.121.121,0,0,1,.13.13V121a.121.121,0,0,1-.13.13H97.31c-.05,0-.08.02-.08.08v3.21a.074.074,0,0,0,.08.08h4.28a.121.121,0,0,1,.13.13v.43a.121.121,0,0,1-.13.13H96.64a.121.121,0,0,1-.13-.13Zm2.08-1.2c-.08,0-.11-.05-.05-.13l1.04-1.33a.256.256,0,0,1,.23-.13h.51c.08,0,.1.06.05.13l-1.22,1.34a.245.245,0,0,1-.23.11h-.33Z" fill="#fce7c2"/>
      </g>
      <path id="Path_845" data-name="Path 845" d="M108.98,120.84a8.006,8.006,0,0,1,.23-2.44,2.653,2.653,0,0,1,2.75-1.89,2.721,2.721,0,0,1,2.64,1.56.119.119,0,0,1-.05.16l-.4.2a.119.119,0,0,1-.16-.05,2.127,2.127,0,0,0-2.04-1.2,1.989,1.989,0,0,0-2.06,1.42,12.644,12.644,0,0,0,0,4.48,2.2,2.2,0,0,0,4.11.02,5.008,5.008,0,0,0,.2-1.61c0-.05-.02-.07-.07-.07h-1.9a.116.116,0,0,1-.12-.12v-.41a.116.116,0,0,1,.12-.12h2.56a.116.116,0,0,1,.12.12v.51a6.71,6.71,0,0,1-.22,1.87,2.926,2.926,0,0,1-5.48.02,8.192,8.192,0,0,1-.23-2.45" fill="#fce7c2"/>
      <path id="Path_846" data-name="Path 846" d="M118.26,123.28a12.032,12.032,0,0,1,0-4.88,2.9,2.9,0,0,1,5.43,0,12.032,12.032,0,0,1,0,4.88,2.9,2.9,0,0,1-5.43,0m4.75-4.69a2.168,2.168,0,0,0-4.07,0,12.052,12.052,0,0,0,0,4.48,2.168,2.168,0,0,0,4.07,0,12.052,12.052,0,0,0,0-4.48" fill="#fce7c2"/>
      <g id="Group_1195" data-name="Group 1195">
        <path id="Path_847" data-name="Path 847" d="M127.99,122.1c0,1.61.82,2.39,2.17,2.39,1.37,0,2.18-.78,2.18-2.39v-5.48c0-.08.05-.12.13-.12h.47a.11.11,0,0,1,.12.12v5.46c0,2.09-1.13,3.08-2.9,3.08s-2.89-.99-2.89-3.08v-5.46c0-.08.05-.12.13-.12h.46a.118.118,0,0,1,.13.12Z" fill="#fce7c2"/>
      </g>
      <g id="Group_1196" data-name="Group 1196">
        <path id="Path_848" data-name="Path 848" d="M141.81,125.17c-.08,0-.12-.02-.15-.12l-1.82-3.76h-2.36a.074.074,0,0,0-.08.08v3.67a.121.121,0,0,1-.13.13h-.47a.121.121,0,0,1-.13-.13v-8.4a.121.121,0,0,1,.13-.13h2.9a2.342,2.342,0,0,1,2.64,2.39,2.2,2.2,0,0,1-1.77,2.29l1.88,3.83c.05.08.01.14-.06.14h-.58Zm-.19-6.26c0-1.08-.69-1.71-1.92-1.71h-2.22a.074.074,0,0,0-.08.08v3.26a.074.074,0,0,0,.08.08h2.22c1.23-.01,1.92-.62,1.92-1.71" fill="#fce7c2"/>
      </g>
      <g id="Group_1197" data-name="Group 1197">
        <path id="Path_849" data-name="Path 849" d="M145.78,116.64a.121.121,0,0,1,.13-.13h.48a.191.191,0,0,1,.19.13l2.81,6.2h.05l2.75-6.2a.188.188,0,0,1,.18-.13h.5a.121.121,0,0,1,.13.13v8.4a.121.121,0,0,1-.13.13h-.47a.121.121,0,0,1-.13-.13v-6.77h-.04l-2.5,5.49a.214.214,0,0,1-.23.14h-.26a.216.216,0,0,1-.22-.14l-2.5-5.49h-.04v6.77a.121.121,0,0,1-.13.13h-.47a.121.121,0,0,1-.13-.13v-8.4Z" fill="#fce7c2"/>
      </g>
      <g id="Group_1198" data-name="Group 1198">
        <path id="Path_850" data-name="Path 850" d="M156.66,116.64a.121.121,0,0,1,.13-.13h4.95a.121.121,0,0,1,.13.13v.43a.121.121,0,0,1-.13.13h-4.28a.074.074,0,0,0-.08.08v3.08c0,.05.02.08.08.08h3.68a.121.121,0,0,1,.13.13V121a.121.121,0,0,1-.13.13h-3.68c-.05,0-.08.02-.08.08v3.21c0,.05.02.08.08.08h4.28a.121.121,0,0,1,.13.13v.44a.121.121,0,0,1-.13.13h-4.95a.121.121,0,0,1-.13-.13Z" fill="#fce7c2"/>
      </g>
      <g id="Group_1199" data-name="Group 1199">
        <path id="Path_851" data-name="Path 851" d="M166.93,125.17a.121.121,0,0,1-.13-.13v-7.77c0-.05-.02-.08-.08-.08h-2.49a.121.121,0,0,1-.13-.13v-.43a.121.121,0,0,1,.13-.13h5.87a.121.121,0,0,1,.13.13v.43a.121.121,0,0,1-.13.13h-2.5a.074.074,0,0,0-.08.08v7.77a.121.121,0,0,1-.13.13Z" fill="#fce7c2"/>
      </g>
    </g>
    <g id="Group_1209" data-name="Group 1209" transform="translate(116 -55.549)">
      <path id="Path_852" data-name="Path 852" d="M37.56,98.05l.99-1.17a6.765,6.765,0,0,0,4.86,2c1.9,0,3.16-1.01,3.16-2.41v-.04c0-1.32-.71-2.07-3.69-2.69-3.26-.71-4.76-1.76-4.76-4.09V89.6c0-2.23,1.96-3.87,4.66-3.87a7.426,7.426,0,0,1,4.98,1.74l-.93,1.24a6.246,6.246,0,0,0-4.09-1.54c-1.84,0-3.02,1.01-3.02,2.29v.04c0,1.34.73,2.09,3.85,2.75,3.16.69,4.62,1.84,4.62,4.01v.04c0,2.43-2.02,4.01-4.84,4.01a8.316,8.316,0,0,1-5.79-2.26" fill="#fce7c2"/>
      <g id="Group_1201" data-name="Group 1201">
        <path id="Path_853" data-name="Path 853" d="M56.48,85.73h1.53l6.6,14.58H62.85l-1.7-3.82H53.27l-1.72,3.82H49.87Zm4.04,9.29-3.29-7.38-3.31,7.38Z" fill="#fce7c2"/>
      </g>
      <g id="Group_1202" data-name="Group 1202">
        <path id="Path_854" data-name="Path 854" d="M67.29,85.73h1.54l9.18,11.69V85.73h1.61v14.58H78.3L68.89,88.36v11.95h-1.6Z" fill="#fce7c2"/>
      </g>
      <g id="Group_1203" data-name="Group 1203">
        <path id="Path_855" data-name="Path 855" d="M87.36,87.26H82.47V85.73H93.92v1.53H89.03v13.05H87.36Z" fill="#fce7c2"/>
      </g>
      <g id="Group_1204" data-name="Group 1204">
        <path id="Path_856" data-name="Path 856" d="M100.33,85.73h1.53l6.6,14.58H106.7l-1.69-3.82H97.13l-1.72,3.82H93.73Zm4.03,9.29-3.29-7.38-3.31,7.38Z" fill="#fce7c2"/>
      </g>
      <g id="Group_1205" data-name="Group 1205">
        <path id="Path_857" data-name="Path 857" d="M117.27,85.73h1.67l5.31,7.96,5.31-7.96h1.67v14.58h-1.65V88.5l-5.31,7.82h-.08l-5.31-7.79v11.78h-1.61Z" fill="#fce7c2"/>
      </g>
      <path id="Path_858" data-name="Path 858" d="M134.68,93.06v-.04a7.19,7.19,0,1,1,14.38-.04v.04a7.19,7.19,0,1,1-14.38.04m12.72,0v-.04a5.609,5.609,0,0,0-5.56-5.82,5.542,5.542,0,0,0-5.52,5.78v.04a5.6,5.6,0,0,0,5.56,5.82,5.53,5.53,0,0,0,5.52-5.78" fill="#fce7c2"/>
      <g id="Group_1206" data-name="Group 1206">
        <path id="Path_859" data-name="Path 859" d="M152.52,85.73h1.54l9.19,11.69V85.73h1.6v14.58h-1.31l-9.42-11.95v11.95h-1.6Z" fill="#fce7c2"/>
      </g>
      <g id="Group_1207" data-name="Group 1207">
        <rect id="Rectangle_635" data-name="Rectangle 635" width="1.65" height="14.58" transform="translate(168.95 85.73)" fill="#fce7c2"/>
      </g>
      <path id="Path_860" data-name="Path 860" d="M174.27,93.06v-.04a7.106,7.106,0,0,1,7.13-7.29,7.338,7.338,0,0,1,5.5,2.24l-1.09,1.17a6.123,6.123,0,0,0-4.43-1.93,5.531,5.531,0,0,0-5.46,5.78v.04a5.567,5.567,0,0,0,5.46,5.82,6.152,6.152,0,0,0,4.55-2.03l1.05,1.03a7.342,7.342,0,0,1-5.64,2.48,7.059,7.059,0,0,1-7.07-7.27" fill="#fce7c2"/>
      <g id="Group_1208" data-name="Group 1208">
        <path id="Path_861" data-name="Path 861" d="M195.22,85.73l-6.59,14.58h1.67l1.72-3.82h7.88l1.7,3.82h1.76l-6.6-14.58Zm.75,1.91,3.29,7.38h-6.6Z" fill="#fce7c2"/>
      </g>
    </g>
    <g id="Group_1213" data-name="Group 1213">
      <g id="Group_1210" data-name="Group 1210">
        <path id="Path_862" data-name="Path 862" d="M120.35,17.08c-8.62,0-15.61,2.57-15.61,5.73a2.118,2.118,0,0,0,.05.44c.61-2.77,7.34-4.95,15.56-4.95s14.94,2.18,15.56,4.95a2.2,2.2,0,0,0,.05-.44C135.96,19.65,128.97,17.08,120.35,17.08Z" fill="#fce7c2"/>
      </g>
      <g id="Group_1211" data-name="Group 1211">
        <path id="Path_863" data-name="Path 863" d="M120.5,32.81a27.724,27.724,0,0,0-3.32,13.3v.04c0,.07.43,7.16-3.85,16.89l-.73,1.59a1.376,1.376,0,0,1-2.34.27h0c-3.88-4.35-6.37-11.15-6.37-18.79,0-7.44,2.36-14.08,6.07-18.44h0c-3.2-.98-5.21-2.41-5.21-4a1.84,1.84,0,0,1,.05-.41c.33,1.59,2.42,3,5.56,3.96a13.559,13.559,0,0,1,10-4.89,12.686,12.686,0,0,1,7.29,2.12,1.26,1.26,0,0,1-.26,2.21A13.389,13.389,0,0,0,120.5,32.81Z" fill="#fce7c2"/>
      </g>
      <g id="Group_1212" data-name="Group 1212">
        <path id="Path_864" data-name="Path 864" d="M131.1,27.55c2.99-.98,4.86-2.36,4.86-3.89a1.841,1.841,0,0,0-.05-.41c-.36,1.75-2.87,3.28-6.56,4.24,0,0-1.98.52-3.42,1.06a1.1,1.1,0,0,0-.59,1.5c.03.06.05.12.08.18a12.133,12.133,0,0,1,1.03,3.58,12,12,0,0,1-.51,5.32,1.045,1.045,0,0,0-.1.7c.21,1.41,1.66,3.22,1.79,3.85s-1.49,1.05-1.83,1.24c-.57.31-1.32,4.05-1.32,4.05-.35,1.66-.66,1.76-.66,1.76-1.04.66-3.36-.14-5.31-1.04a.077.077,0,0,1-.03-.01,45.134,45.134,0,0,1-2.56,10.58c-.36.98-.77,2-1.23,3.05,0,0-1.99,3.9,1.53,5.49a10.694,10.694,0,0,0,4.38.85c9.09,0,16.46-10.65,16.46-23.78C137.06,38.49,134.74,31.92,131.1,27.55Z" fill="#fce7c2"/>
      </g>
    </g>
  </g>
</svg>
