<svg xmlns="http://www.w3.org/2000/svg" width="126.572" height="55.565" viewBox="0 0 126.572 55.565">
  <g id="Group_4265" data-name="Group 4265" transform="translate(-160.016 -396.137)">
    <path id="assinatura" d="M7.232-11.28H5.408L.48,0H2.5L3.648-2.7h5.3L10.08,0h2.08Zm.992,6.832H4.368l1.92-4.48Zm9.424-3.824a1.189,1.189,0,0,1,.48-.952,2.07,2.07,0,0,1,1.344-.392,4.12,4.12,0,0,1,1.52.3,6.865,6.865,0,0,1,1.52.856l1.056-1.488A6.592,6.592,0,0,0,21.72-11a6.417,6.417,0,0,0-2.216-.36,4.882,4.882,0,0,0-1.536.232,3.529,3.529,0,0,0-1.208.664,3.126,3.126,0,0,0-.792,1.032A3.048,3.048,0,0,0,15.68-8.1a3.191,3.191,0,0,0,.248,1.328,2.542,2.542,0,0,0,.72.928,4.051,4.051,0,0,0,1.168.64,13.447,13.447,0,0,0,1.592.464,12.959,12.959,0,0,1,1.272.368,3.215,3.215,0,0,1,.768.376,1.087,1.087,0,0,1,.384.44,1.356,1.356,0,0,1,.1.544,1.214,1.214,0,0,1-.536,1.04,2.44,2.44,0,0,1-1.448.384,4.537,4.537,0,0,1-1.888-.376,6.88,6.88,0,0,1-1.648-1.08L15.232-1.632A6.771,6.771,0,0,0,17.424-.28,7.062,7.062,0,0,0,19.9.16,5.531,5.531,0,0,0,21.52-.064,3.648,3.648,0,0,0,22.784-.72a3.018,3.018,0,0,0,.824-1.056A3.284,3.284,0,0,0,23.9-3.2a2.983,2.983,0,0,0-.232-1.224,2.623,2.623,0,0,0-.68-.912A3.891,3.891,0,0,0,21.864-6a12.576,12.576,0,0,0-1.56-.5q-.8-.192-1.32-.368a3.251,3.251,0,0,1-.816-.384A1.177,1.177,0,0,1,17.76-7.7,1.353,1.353,0,0,1,17.648-8.272Zm12.16,0a1.189,1.189,0,0,1,.48-.952,2.07,2.07,0,0,1,1.344-.392,4.12,4.12,0,0,1,1.52.3,6.865,6.865,0,0,1,1.52.856l1.056-1.488A6.592,6.592,0,0,0,33.88-11a6.417,6.417,0,0,0-2.216-.36,4.882,4.882,0,0,0-1.536.232,3.529,3.529,0,0,0-1.208.664,3.126,3.126,0,0,0-.792,1.032A3.048,3.048,0,0,0,27.84-8.1a3.191,3.191,0,0,0,.248,1.328,2.542,2.542,0,0,0,.72.928,4.051,4.051,0,0,0,1.168.64,13.447,13.447,0,0,0,1.592.464,12.959,12.959,0,0,1,1.272.368,3.215,3.215,0,0,1,.768.376,1.087,1.087,0,0,1,.384.44,1.356,1.356,0,0,1,.1.544,1.214,1.214,0,0,1-.536,1.04,2.44,2.44,0,0,1-1.448.384,4.537,4.537,0,0,1-1.888-.376,6.88,6.88,0,0,1-1.648-1.08L27.392-1.632A6.771,6.771,0,0,0,29.584-.28a7.062,7.062,0,0,0,2.48.44A5.531,5.531,0,0,0,33.68-.064,3.648,3.648,0,0,0,34.944-.72a3.018,3.018,0,0,0,.824-1.056,3.284,3.284,0,0,0,.3-1.424,2.983,2.983,0,0,0-.232-1.224,2.623,2.623,0,0,0-.68-.912A3.891,3.891,0,0,0,34.024-6a12.576,12.576,0,0,0-1.56-.5q-.8-.192-1.32-.368a3.251,3.251,0,0,1-.816-.384A1.177,1.177,0,0,1,29.92-7.7,1.353,1.353,0,0,1,29.808-8.272ZM40.576-11.2V0h1.968V-11.2ZM55.44-3.456l-6-7.744H47.616V0h1.936V-7.968L55.728,0h1.648V-11.2H55.44ZM68.128-11.28H66.3L61.376,0h2.016l1.152-2.7h5.3L70.976,0h2.08Zm.992,6.832H65.264l1.92-4.48ZM80.352-9.376H83.9V-11.2H74.816v1.824h3.552V0h1.984ZM97.472-11.2H95.5v6.448a3.254,3.254,0,0,1-.752,2.336,2.725,2.725,0,0,1-2.064.784,2.688,2.688,0,0,1-2.08-.816,3.4,3.4,0,0,1-.752-2.384V-11.2H87.888v6.448a6.214,6.214,0,0,0,.336,2.136,4.17,4.17,0,0,0,.96,1.544,3.97,3.97,0,0,0,1.5.936,5.86,5.86,0,0,0,1.968.312,5.982,5.982,0,0,0,1.992-.312A3.913,3.913,0,0,0,96.16-1.08a4.3,4.3,0,0,0,.968-1.576,6.39,6.39,0,0,0,.344-2.192ZM111.76,0l-3.024-4.24a4.165,4.165,0,0,0,1.08-.456,3.319,3.319,0,0,0,.84-.72,3.242,3.242,0,0,0,.552-.976,3.672,3.672,0,0,0,.2-1.256,3.682,3.682,0,0,0-.288-1.48,3.033,3.033,0,0,0-.824-1.12,3.767,3.767,0,0,0-1.312-.7,5.687,5.687,0,0,0-1.736-.248h-4.992V0h1.968V-3.9h2.464L109.44,0Zm-2.352-7.536a1.688,1.688,0,0,1-.624,1.376,2.569,2.569,0,0,1-1.68.512h-2.88v-3.76h2.864a2.735,2.735,0,0,1,1.712.472A1.663,1.663,0,0,1,109.408-7.536ZM121.7-11.28h-1.824L114.944,0h2.016l1.152-2.7h5.3L124.544,0h2.08Zm.992,6.832h-3.856l1.92-4.48Z" transform="translate(159.535 407.497)" fill="#fff"/>
    <g id="logo_santamonica_1_1_" data-name="logo_santamonica (1) (1)" transform="translate(160.088 421.582)">
      <g id="Group_1178" data-name="Group 1178" transform="translate(25.301 21.455)">
        <path id="Path_817" data-name="Path 817" d="M70.72,119.814a6.243,6.243,0,0,1,.168-1.869,1.964,1.964,0,0,1,2.03-1.434,2.015,2.015,0,0,1,1.938,1.19.1.1,0,0,1-.031.122l-.313.153a.083.083,0,0,1-.122-.038,1.569,1.569,0,0,0-1.473-.916,1.454,1.454,0,0,0-1.511,1.068,5.79,5.79,0,0,0-.145,1.732,5.593,5.593,0,0,0,.145,1.732,1.462,1.462,0,0,0,1.511,1.068,1.569,1.569,0,0,0,1.473-.916c.031-.046.076-.069.122-.038l.313.153a.1.1,0,0,1,.031.122,2.015,2.015,0,0,1-1.938,1.19,1.964,1.964,0,0,1-2.03-1.434,6.453,6.453,0,0,1-.168-1.885" transform="translate(-70.72 -114.48)" fill="#fff"/>
        <g id="Group_1170" data-name="Group 1170" transform="translate(5.97 2.03)">
          <path id="Path_818" data-name="Path 818" d="M80.868,116.609c.023-.061.061-.1.114-.1h.351a.109.109,0,0,1,.114.1l2.289,6.409a.067.067,0,0,1-.069.1h-.381c-.069,0-.107-.015-.122-.1l-.58-1.625H79.708l-.58,1.625c-.031.076-.069.1-.13.1h-.381c-.061,0-.084-.038-.069-.1Zm1.534,4.257-1.236-3.456h-.031l-1.244,3.456Z" transform="translate(-78.544 -116.51)" fill="#fff"/>
        </g>
        <g id="Group_1171" data-name="Group 1171" transform="translate(13.352 2.03)">
          <path id="Path_819" data-name="Path 819" d="M88.228,116.609a.092.092,0,0,1,.1-.1H92.1a.092.092,0,0,1,.1.1v.328a.092.092,0,0,1-.1.1H88.838a.056.056,0,0,0-.061.061v2.419c0,.038.015.061.061.061h2.808a.092.092,0,0,1,.1.1V120a.092.092,0,0,1-.1.1H88.838c-.038,0-.061.015-.061.061v2.869a.092.092,0,0,1-.1.1h-.359a.092.092,0,0,1-.1-.1v-6.424Z" transform="translate(-88.22 -116.51)" fill="#fff"/>
        </g>
        <g id="Group_1172" data-name="Group 1172" transform="translate(19.677)">
          <path id="Path_820" data-name="Path 820" d="M96.51,115.979a.092.092,0,0,1,.1-.1h3.777a.092.092,0,0,1,.1.1v.336c0,.061-.038.092-.1.092H97.12a.056.056,0,0,0-.061.061v2.35a.056.056,0,0,0,.061.061h2.808a.092.092,0,0,1,.1.1v.328a.092.092,0,0,1-.1.1H97.12c-.038,0-.061.015-.061.061v2.449a.056.056,0,0,0,.061.061h3.266a.092.092,0,0,1,.1.1v.328a.092.092,0,0,1-.1.1H96.609a.092.092,0,0,1-.1-.1Zm1.587-.916c-.061,0-.084-.038-.038-.1l.793-1.015a.2.2,0,0,1,.175-.1h.389c.061,0,.076.046.038.1l-.931,1.022a.187.187,0,0,1-.175.084H98.1Z" transform="translate(-96.51 -113.85)" fill="#fff"/>
        </g>
        <path id="Path_821" data-name="Path 821" d="M108.98,119.814a6.109,6.109,0,0,1,.175-1.862,2.024,2.024,0,0,1,2.1-1.442,2.076,2.076,0,0,1,2.014,1.19.091.091,0,0,1-.038.122l-.305.153a.091.091,0,0,1-.122-.038,1.623,1.623,0,0,0-1.557-.916,1.518,1.518,0,0,0-1.572,1.083,9.648,9.648,0,0,0,0,3.418,1.681,1.681,0,0,0,3.136.015,3.821,3.821,0,0,0,.153-1.228c0-.038-.015-.053-.053-.053h-1.45a.088.088,0,0,1-.092-.092v-.313a.088.088,0,0,1,.092-.092h1.953a.088.088,0,0,1,.092.092v.389a5.118,5.118,0,0,1-.168,1.427,2.232,2.232,0,0,1-4.181.015,6.25,6.25,0,0,1-.175-1.869" transform="translate(-79.788 -114.48)" fill="#fff"/>
        <path id="Path_822" data-name="Path 822" d="M118.2,121.675a9.179,9.179,0,0,1,0-3.723,2.209,2.209,0,0,1,4.143,0,9.179,9.179,0,0,1,0,3.723,2.209,2.209,0,0,1-4.143,0m3.624-3.578a1.654,1.654,0,0,0-3.105,0,9.2,9.2,0,0,0,0,3.418,1.654,1.654,0,0,0,3.105,0,9.2,9.2,0,0,0,0-3.418" transform="translate(-81.929 -114.48)" fill="#fff"/>
        <g id="Group_1173" data-name="Group 1173" transform="translate(43.147 2.022)">
          <path id="Path_823" data-name="Path 823" d="M127.819,120.773c0,1.228.626,1.824,1.656,1.824s1.663-.6,1.663-1.824v-4.181c0-.061.038-.092.1-.092h.359a.084.084,0,0,1,.092.092v4.166a2.213,2.213,0,1,1-4.418,0v-4.166c0-.061.038-.092.1-.092h.351a.09.09,0,0,1,.1.092Z" transform="translate(-127.27 -116.5)" fill="#fff"/>
        </g>
        <g id="Group_1174" data-name="Group 1174" transform="translate(50.319 2.03)">
          <path id="Path_824" data-name="Path 824" d="M140.592,123.117c-.061,0-.092-.015-.114-.092l-1.389-2.869h-1.8a.056.056,0,0,0-.061.061v2.8a.092.092,0,0,1-.1.1h-.359a.092.092,0,0,1-.1-.1v-6.409a.092.092,0,0,1,.1-.1h2.213A1.787,1.787,0,0,1,141,118.333a1.679,1.679,0,0,1-1.35,1.747l1.43,2.92c.038.061.008.107-.046.107h-.443Zm-.145-4.776c0-.824-.526-1.3-1.465-1.3h-1.694a.056.056,0,0,0-.061.061v2.487a.056.056,0,0,0,.061.061h1.694c.938-.008,1.465-.473,1.465-1.3" transform="translate(-136.67 -116.51)" fill="#fff"/>
        </g>
        <g id="Group_1175" data-name="Group 1175" transform="translate(57.247 2.03)">
          <path id="Path_825" data-name="Path 825" d="M145.773,116.609a.092.092,0,0,1,.1-.1h.366a.146.146,0,0,1,.145.1l2.144,4.73h.038l2.1-4.73a.143.143,0,0,1,.137-.1h.382a.092.092,0,0,1,.1.1v6.409a.092.092,0,0,1-.1.1h-.359a.092.092,0,0,1-.1-.1v-5.165h-.03l-1.907,4.189a.163.163,0,0,1-.175.107h-.2a.165.165,0,0,1-.168-.107l-1.907-4.189h-.031v5.165a.092.092,0,0,1-.1.1h-.359a.092.092,0,0,1-.1-.1v-6.409Z" transform="translate(-145.75 -116.51)" fill="#fff"/>
        </g>
        <g id="Group_1176" data-name="Group 1176" transform="translate(65.571 2.03)">
          <path id="Path_826" data-name="Path 826" d="M156.66,116.609a.092.092,0,0,1,.1-.1h3.777a.092.092,0,0,1,.1.1v.328a.092.092,0,0,1-.1.1H157.27a.056.056,0,0,0-.061.061v2.35c0,.038.015.061.061.061h2.808a.092.092,0,0,1,.1.1v.328a.092.092,0,0,1-.1.1H157.27c-.038,0-.061.015-.061.061v2.449c0,.038.015.061.061.061h3.266a.092.092,0,0,1,.1.1v.336a.092.092,0,0,1-.1.1h-3.777a.092.092,0,0,1-.1-.1Z" transform="translate(-156.66 -116.51)" fill="#fff"/>
        </g>
        <g id="Group_1177" data-name="Group 1177" transform="translate(71.247 2.022)">
          <path id="Path_827" data-name="Path 827" d="M166.259,123.115a.092.092,0,0,1-.1-.1v-5.928c0-.038-.015-.061-.061-.061h-1.9a.092.092,0,0,1-.1-.1V116.6a.092.092,0,0,1,.1-.1h4.479a.092.092,0,0,1,.1.1v.328a.092.092,0,0,1-.1.1H166.77a.056.056,0,0,0-.061.061v5.928a.092.092,0,0,1-.1.1Z" transform="translate(-164.1 -116.5)" fill="#fff"/>
        </g>
      </g>
      <g id="Group_1187" data-name="Group 1187">
        <path id="Path_828" data-name="Path 828" d="M37.56,95.13l.755-.893a5.162,5.162,0,0,0,3.708,1.526c1.45,0,2.411-.771,2.411-1.839v-.031c0-1.007-.542-1.579-2.815-2.052-2.487-.542-3.632-1.343-3.632-3.121v-.038c0-1.7,1.5-2.953,3.555-2.953a5.666,5.666,0,0,1,3.8,1.328l-.71.946a4.766,4.766,0,0,0-3.121-1.175c-1.4,0-2.3.771-2.3,1.747v.031c0,1.022.557,1.6,2.937,2.1,2.411.526,3.525,1.4,3.525,3.06V93.8c0,1.854-1.541,3.06-3.693,3.06a6.345,6.345,0,0,1-4.42-1.727" transform="translate(-37.56 -85.73)" fill="#fff"/>
        <g id="Group_1179" data-name="Group 1179" transform="translate(9.392)">
          <path id="Path_829" data-name="Path 829" d="M54.913,85.73H56.08l5.036,11.124H59.774l-1.3-2.915h-6.01l-1.312,2.915H49.87ZM58,92.818l-2.51-5.631-2.53,5.631Z" transform="translate(-49.87 -85.73)" fill="#fff"/>
        </g>
        <g id="Group_1180" data-name="Group 1180" transform="translate(22.683)">
          <path id="Path_830" data-name="Path 830" d="M67.29,85.73h1.175l7,8.919V85.73H76.7V96.854H75.69l-7.18-9.118v9.118H67.29Z" transform="translate(-67.29 -85.73)" fill="#fff"/>
        </g>
        <g id="Group_1181" data-name="Group 1181" transform="translate(34.266)">
          <path id="Path_831" data-name="Path 831" d="M86.2,86.9H82.47V85.73h8.736V86.9H87.475v9.957H86.2Z" transform="translate(-82.47 -85.73)" fill="#fff"/>
        </g>
        <g id="Group_1182" data-name="Group 1182" transform="translate(42.857)">
          <path id="Path_832" data-name="Path 832" d="M98.766,85.73h1.167l5.036,11.124h-1.343l-1.289-2.915H96.324l-1.312,2.915H93.73Zm3.075,7.088-2.51-5.631L96.8,92.818Z" transform="translate(-93.73 -85.73)" fill="#fff"/>
        </g>
        <g id="Group_1183" data-name="Group 1183" transform="translate(60.817)">
          <path id="Path_833" data-name="Path 833" d="M117.27,85.73h1.274L122.6,91.8l4.051-6.073h1.274V96.854h-1.259V87.843l-4.051,5.967h-.061L118.5,87.866v8.988h-1.23Z" transform="translate(-117.27 -85.73)" fill="#fff"/>
        </g>
        <path id="Path_834" data-name="Path 834" d="M134.68,91.323v-.031a5.486,5.486,0,0,1,10.972-.031v.031a5.486,5.486,0,1,1-10.972.031m9.7,0v-.031a4.279,4.279,0,0,0-4.242-4.441,4.229,4.229,0,0,0-4.212,4.41v.031a4.275,4.275,0,0,0,4.242,4.441,4.219,4.219,0,0,0,4.212-4.41" transform="translate(-60.579 -85.73)" fill="#fff"/>
        <g id="Group_1184" data-name="Group 1184" transform="translate(87.713)">
          <path id="Path_835" data-name="Path 835" d="M152.52,85.73H153.7l7.012,8.919V85.73h1.221V96.854h-1l-7.187-9.118v9.118H152.52Z" transform="translate(-152.52 -85.73)" fill="#fff"/>
        </g>
        <g id="Group_1185" data-name="Group 1185" transform="translate(100.248)">
          <rect id="Rectangle_634" data-name="Rectangle 634" width="1.259" height="11.124" fill="#fff"/>
        </g>
        <path id="Path_836" data-name="Path 836" d="M174.27,91.323v-.031a5.422,5.422,0,0,1,5.44-5.562,5.6,5.6,0,0,1,4.2,1.709l-.832.893a4.672,4.672,0,0,0-3.38-1.473,4.22,4.22,0,0,0-4.166,4.41V91.3a4.247,4.247,0,0,0,4.166,4.441,4.694,4.694,0,0,0,3.472-1.549l.8.786a5.6,5.6,0,0,1-4.3,1.892,5.386,5.386,0,0,1-5.394-5.547" transform="translate(-69.963 -85.73)" fill="#fff"/>
        <g id="Group_1186" data-name="Group 1186" transform="translate(115.264)">
          <path id="Path_837" data-name="Path 837" d="M193.658,85.73,188.63,96.854h1.27l1.312-2.915h6.012l1.3,2.915h1.343L194.833,85.73Zm.572,1.457,2.51,5.631H191.7Z" transform="translate(-188.63 -85.73)" fill="#fff"/>
        </g>
      </g>
    </g>
  </g>
</svg>
