<svg xmlns="http://www.w3.org/2000/svg" width="65" height="24" viewBox="0 0 65 24"><g transform="translate(8.4 0.333)"><rect width="65" height="24" rx="2" transform="translate(-8.4 -0.333)" fill="#999"/><g transform="translate(-63.413 -367.914)"><path d="M449.7,436.273a.319.319,0,0,1-.319-.319V425.63a3.761,3.761,0,0,1,3.757-3.757l3.049,0a3.758,3.758,0,0,1,3.746,3.752v2.2a3.761,3.761,0,0,1-3.757,3.757h-4.308a.319.319,0,0,1,0-.637h4.307a3.124,3.124,0,0,0,3.12-3.119v-2.2a3.121,3.121,0,0,0-3.109-3.115l-3.047,0a3.125,3.125,0,0,0-3.121,3.121v10.323A.319.319,0,0,1,449.7,436.273Zm13.5-4.641a.319.319,0,0,1-.319-.319V423.6a1.094,1.094,0,0,0-1.093-1.093h-1.323a.319.319,0,1,1,0-.637h1.322a1.731,1.731,0,0,1,1.729,1.729v7.713a.319.319,0,0,1-.316.318Z" transform="translate(-366.79 -48.565)" fill="#fff"/><path d="M691.481,372.43l-.6-.6a.381.381,0,0,1,0-.539l.6-.6a.38.38,0,0,1,.539,0l.6.6a.381.381,0,0,1,0,.539l-.6.6a.38.38,0,0,1-.539,0Z" transform="translate(-595.357 0)" fill="#fff"/><path d="M752.87,431.429h-1.311a.319.319,0,1,1,0-.637h1.311a2.21,2.21,0,0,0,1.573-.651l3.067-3.067a1.335,1.335,0,0,1,1.888,0l3.055,3.056a2.211,2.211,0,0,0,1.576.653h1.062a.319.319,0,0,1,0,.637H764.03a2.84,2.84,0,0,1-2.023-.838l-3.055-3.055a.7.7,0,0,0-.989,0l-3.069,3.065A2.842,2.842,0,0,1,752.87,431.429Zm5.582-4.952a1.328,1.328,0,0,1-.944-.392l-3.065-3.067a2.209,2.209,0,0,0-1.573-.652h-1.311a.319.319,0,1,1,0-.637h1.311a2.842,2.842,0,0,1,2.023.84l3.067,3.067a.7.7,0,0,0,.989,0L762,422.581a2.841,2.841,0,0,1,2.026-.837h1.062a.319.319,0,0,1,0,.637H764.03a2.211,2.211,0,0,0-1.574.652l-3.056,3.055A1.328,1.328,0,0,1,758.452,426.477Z" transform="translate(-652.615 -48.432)" fill="#fff"/><path d="M135.68,575.155a2.45,2.45,0,0,1-1.742-.721l-2.516-2.516a.478.478,0,0,0-.661,0l-2.525,2.525a2.447,2.447,0,0,1-1.742.721H126l3.187,3.187a2.55,2.55,0,0,0,3.6,0l3.2-3.2Z" transform="translate(-60.589 -190.516)" fill="#fff"/><path d="M126.447,397.638a2.448,2.448,0,0,1,1.742.721l2.525,2.525a.468.468,0,0,0,.661,0l2.516-2.516a2.45,2.45,0,0,1,1.742-.721h.3l-3.2-3.2a2.55,2.55,0,0,0-3.6,0l-3.187,3.187Z" transform="translate(-60.541 -21.898)" fill="#fff"/><path d="M78.037,483.078l-1.931-1.93a.367.367,0,0,1-.137.028h-.878a1.735,1.735,0,0,0-1.222.5L71.355,484.2a1.209,1.209,0,0,1-1.708,0l-2.525-2.525a1.736,1.736,0,0,0-1.219-.505H64.827a.365.365,0,0,1-.13-.026l-1.939,1.938a2.55,2.55,0,0,0,0,3.6l1.938,1.941a.364.364,0,0,1,.13-.026h1.079a1.736,1.736,0,0,0,1.219-.505l2.525-2.525a1.237,1.237,0,0,1,1.708,0l2.515,2.515a1.736,1.736,0,0,0,1.222.5h.878a.37.37,0,0,1,.138.028l1.93-1.93a2.55,2.55,0,0,0,0-3.6Z" transform="translate(0 -104.686)" fill="#fff"/><path d="M494.4,668.592a2.2,2.2,0,0,0-.472.072v.629a1.093,1.093,0,0,0,.368.061c.315,0,.465-.106.465-.384C494.759,668.709,494.637,668.592,494.4,668.592Zm-.579,1.169v-1.246h.087l.009.053a2.5,2.5,0,0,1,.492-.079.49.49,0,0,1,.323.094.481.481,0,0,1,.142.386.439.439,0,0,1-.2.4.785.785,0,0,1-.366.081,1.318,1.318,0,0,1-.379-.057v.366Z" transform="translate(-408.869 -282.082)" fill="#fff"/><path d="M518.39,668.647c-.316,0-.456.1-.456.377s.139.389.456.389.454-.1.454-.375S518.706,668.647,518.39,668.647Zm.405.766a.683.683,0,0,1-.405.1.7.7,0,0,1-.407-.1.431.431,0,0,1-.163-.382.438.438,0,0,1,.163-.384.9.9,0,0,1,.813,0,.436.436,0,0,1,.163.382A.443.443,0,0,1,518.8,669.413ZM518.8,669.413Z" transform="translate(-431.594 -282.141)" fill="#fff"/><path d="M543.345,669.931l-.351-.755h-.007l-.346.755h-.1l-.375-.911h.117l.312.764h.007l.339-.764h.1l.348.764h.007l.3-.764h.114l-.375.911Z" transform="translate(-454.651 -282.586)" fill="#fff"/><path d="M576.654,668.624c-.292,0-.391.13-.409.319h.818C577.055,668.736,576.948,668.624,576.654,668.624Zm0,.866a.547.547,0,0,1-.379-.1.472.472,0,0,1-.142-.378.464.464,0,0,1,.169-.389.606.606,0,0,1,.355-.092.637.637,0,0,1,.364.088.464.464,0,0,1,.159.42h-.939c0,.188.065.353.418.353a2.692,2.692,0,0,0,.471-.053v.1a2.788,2.788,0,0,1-.478.056Z" transform="translate(-486.807 -282.12)" fill="#fff"/><path d="M601.51,669.448v-.912h.087l.009.053a1.6,1.6,0,0,1,.452-.079h.013v.1h-.025a1.483,1.483,0,0,0-.429.072v.762Z" transform="translate(-510.839 -282.103)" fill="#fff"/><path d="M614.344,668.624c-.292,0-.391.13-.409.319h.818C614.745,668.736,614.638,668.624,614.344,668.624Zm0,.866a.547.547,0,0,1-.378-.1.473.473,0,0,1-.142-.378.465.465,0,0,1,.169-.389.606.606,0,0,1,.355-.092.638.638,0,0,1,.365.088.464.464,0,0,1,.159.42h-.937c0,.188.065.353.418.353a2.693,2.693,0,0,0,.471-.053v.1a2.786,2.786,0,0,1-.478.056Z" transform="translate(-522.495 -282.12)" fill="#fff"/><path d="M638.566,662.327a1.08,1.08,0,0,0-.368-.062c-.316,0-.465.106-.465.384s.122.378.36.378a2.338,2.338,0,0,0,.472-.07Zm.02.777-.009-.053a2.449,2.449,0,0,1-.492.079.415.415,0,0,1-.465-.479.433.433,0,0,1,.2-.4.761.761,0,0,1,.368-.083,1.393,1.393,0,0,1,.377.057v-.416h.106V663.1Z" transform="translate(-545.03 -275.759)" fill="#fff"/><path d="M676.479,662.25a2.2,2.2,0,0,0-.473.072v.627a1.057,1.057,0,0,0,.368.063c.316,0,.465-.106.465-.384C676.839,662.367,676.717,662.25,676.479,662.25Zm.272.779a.783.783,0,0,1-.366.081,1.3,1.3,0,0,1-.408-.068l-.005.044H675.9V661.79h.106v.436a2.572,2.572,0,0,1,.481-.075.488.488,0,0,1,.323.094.481.481,0,0,1,.142.386.438.438,0,0,1-.2.4Z" transform="translate(-581.277 -275.74)" fill="#fff"/><path d="M698.02,670.261v-.1c.053.005.1.009.135.009a.276.276,0,0,0,.285-.188l.034-.072L698,669h.123l.407.786h.007l.387-.786h.12l-.514,1.023a.372.372,0,0,1-.381.247,1.05,1.05,0,0,1-.131-.009Z" transform="translate(-602.203 -282.567)" fill="#fff"/><path d="M734.039,663.626h-.353v.319h.355c.244,0,.336-.027.336-.159S734.25,663.626,734.039,663.626Zm-.066-.518h-.287v.325h.29c.24,0,.336-.029.336-.164s-.121-.159-.337-.159Zm.548.95a1.049,1.049,0,0,1-.574.087h-.537V662.91h.526a1,1,0,0,1,.524.08.261.261,0,0,1,.126.245.269.269,0,0,1-.195.274v.007c.159.037.261.117.261.293a.265.265,0,0,1-.131.25Z" transform="translate(-635.732 -276.8)" fill="#fff"/><path d="M762.443,669.152c-.106-.01-.212-.015-.328-.015-.186,0-.251.038-.251.123s.053.123.2.123a1.881,1.881,0,0,0,.383-.053Zm.053.382-.007-.053a2.184,2.184,0,0,1-.494.079.471.471,0,0,1-.276-.066.282.282,0,0,1,.053-.467.836.836,0,0,1,.341-.049c.1,0,.223.006.33.013v-.016c0-.142-.094-.189-.35-.189-.1,0-.22.005-.335.016v-.184c.128-.011.272-.018.391-.018a.779.779,0,0,1,.425.084.339.339,0,0,1,.124.312v.539Z" transform="translate(-662.442 -282.188)" fill="#fff"/><path d="M788.913,669.441v-.5c0-.166-.085-.225-.236-.225a1.7,1.7,0,0,0-.372.058v.67h-.255v-.912h.21l.009.058a2.112,2.112,0,0,1,.487-.083.449.449,0,0,1,.312.094.352.352,0,0,1,.1.285v.557Z" transform="translate(-687.469 -282.096)" fill="#fff"/><path d="M813.943,669.51a.515.515,0,0,1-.339-.1.469.469,0,0,1-.145-.386.443.443,0,0,1,.186-.389.722.722,0,0,1,.4-.09c.106,0,.207.007.319.018v.2c-.092-.009-.2-.016-.29-.016-.242,0-.355.075-.355.285s.085.281.283.281a2.174,2.174,0,0,0,.382-.047v.188a2.32,2.32,0,0,1-.444.057Z" transform="translate(-711.529 -282.141)" fill="#fff"/><path d="M834.139,668.741c-.242,0-.348.076-.348.283s.106.3.348.3.344-.074.344-.281-.1-.3-.344-.3Zm.436.675a.767.767,0,0,1-.436.1.788.788,0,0,1-.438-.1.519.519,0,0,1,0-.77,1.053,1.053,0,0,1,.874,0,.426.426,0,0,1,.169.384A.434.434,0,0,1,834.576,669.415ZM834.576,669.415Z" transform="translate(-730.533 -282.141)" fill="#fff"/><path d="M872.727,663.725a.684.684,0,0,1-.444-.128.636.636,0,0,1-.193-.515.605.605,0,0,1,.25-.525.948.948,0,0,1,.523-.117c.137,0,.277.009.431.022v.22c-.132-.011-.294-.02-.42-.02-.352,0-.5.133-.5.418s.139.42.4.42a2.84,2.84,0,0,0,.55-.075v.219a3.043,3.043,0,0,1-.595.078Z" transform="translate(-767.045 -276.355)" fill="#fff"/><path d="M899.17,668.684c-.212,0-.292.076-.309.213h.613C899.468,668.748,899.381,668.684,899.17,668.684Zm-.038.8a.586.586,0,0,1-.386-.1.483.483,0,0,1-.146-.38.462.462,0,0,1,.172-.384.676.676,0,0,1,.4-.1.7.7,0,0,1,.395.092.485.485,0,0,1,.159.449h-.864c.005.139.079.229.335.229a3.271,3.271,0,0,0,.485-.047v.178A3.409,3.409,0,0,1,899.132,669.48Z" transform="translate(-792.147 -282.112)" fill="#fff"/><path d="M925.7,669.441v-.5c0-.166-.085-.225-.236-.225a1.7,1.7,0,0,0-.372.058v.67h-.254v-.912h.207l.009.058a2.106,2.106,0,0,1,.487-.083.449.449,0,0,1,.312.094.353.353,0,0,1,.1.285v.557Z" transform="translate(-816.993 -282.096)" fill="#fff"/><path d="M949.706,665.022a.33.33,0,0,1-.3-.13.471.471,0,0,1-.067-.276v-.341h-.184v-.19h.184l.027-.276h.225v.276h.359v.189H949.6v.292a.427.427,0,0,0,.026.173.162.162,0,0,0,.166.085,1.177,1.177,0,0,0,.182-.018v.182a1.427,1.427,0,0,1-.263.032Z" transform="translate(-840.021 -277.652)" fill="#fff"/><path d="M968.79,669.458v-.912H969l.01.058a1.565,1.565,0,0,1,.45-.083h.032v.216H969.4a1.43,1.43,0,0,0-.357.047v.673Z" transform="translate(-858.608 -282.113)" fill="#fff"/><path d="M984.673,669.152c-.106-.01-.213-.015-.328-.015-.186,0-.251.038-.251.123s.053.123.2.123a1.881,1.881,0,0,0,.383-.053Zm.053.382-.007-.053a2.187,2.187,0,0,1-.494.079.472.472,0,0,1-.276-.066.282.282,0,0,1,.053-.467.835.835,0,0,1,.341-.049c.1,0,.223.006.33.013v-.016c0-.142-.094-.189-.35-.189-.1,0-.22.005-.335.016v-.184c.128-.011.272-.018.391-.018a.779.779,0,0,1,.425.084.339.339,0,0,1,.124.312v.539Z" transform="translate(-872.867 -282.188)" fill="#fff"/><path d="M1010.29,661.79h.254v1.295h-.254V661.79Z" transform="translate(-897.904 -275.74)" fill="#fff"/></g></g></svg>