<?xml version="1.0" standalone="no"?>
<!DOCTYPE svg PUBLIC "-//W3C//DTD SVG 20010904//EN"
 "http://www.w3.org/TR/2001/REC-SVG-20010904/DTD/svg10.dtd">
<svg version="1.0" xmlns="http://www.w3.org/2000/svg"
 width="360.000000pt" height="360.000000pt" viewBox="0 0 360.000000 360.000000"
 preserveAspectRatio="xMidYMid meet">

<g transform="translate(0.000000,360.000000) scale(0.100000,-0.100000)"
fill="#000000" stroke="none">
<path d="M1465 2896 c-16 -7 -67 -49 -113 -92 -77 -74 -82 -82 -82 -120 0 -23
11 -62 26 -92 25 -51 145 -183 194 -215 23 -15 3 -16 -306 -16 l-331 -1 -21
-23 c-21 -23 -22 -31 -22 -258 0 -233 0 -236 23 -257 13 -12 35 -22 50 -22
l26 0 3 -536 3 -535 25 -19 c24 -19 52 -20 860 -20 808 0 836 1 860 20 l25 19
3 535 3 536 28 0 c16 0 37 10 49 23 21 23 22 31 22 258 0 233 0 236 -23 257
-23 22 -28 22 -376 22 l-352 0 60 56 c119 110 149 188 91 237 -16 14 -38 28
-48 31 -10 4 -40 31 -66 61 -42 49 -52 55 -85 55 -48 0 -94 -31 -143 -95 -21
-28 -41 -51 -45 -52 -5 -1 -22 21 -40 50 -72 118 -178 208 -244 207 -13 -1
-37 -7 -54 -14z m135 -154 c98 -100 164 -243 146 -316 -13 -53 -117 -27 -216
53 -86 69 -160 162 -160 199 0 12 139 132 153 132 6 0 41 -30 77 -68z m490
-147 c11 -4 20 -10 20 -15 0 -5 -24 -33 -53 -63 -57 -59 -149 -117 -184 -117
-21 0 -23 5 -23 55 0 67 31 135 92 201 l40 44 45 -50 c24 -27 53 -52 63 -55z
m-390 -515 l0 -160 -385 0 -385 0 0 160 0 160 385 0 385 0 0 -160z m970 0 l0
-160 -385 0 -385 0 0 160 0 160 385 0 385 0 0 -160z m-948 -267 c2 -10 4 -232
3 -493 l0 -475 -327 -3 -328 -2 0 495 0 495 324 0 c300 0 324 -1 328 -17z
m808 -478 l0 -495 -327 2 -328 3 0 485 c-1 267 1 488 3 493 2 4 149 7 328 7
l324 0 0 -495z"/>
</g>
</svg>
